<svg width="128" height="89" viewBox="0 0 128 89" fill="none" xmlns="http://www.w3.org/2000/svg">
<path d="M54.1075 75.5922H77.8889V7.66361C77.8889 6.02581 77.2347 4.45509 76.0703 3.29699C74.9058 2.1389 73.3265 1.48828 71.6797 1.48828H28.2148" stroke="#93A5BC" stroke-width="1.5" stroke-linecap="round" stroke-linejoin="round"/>
<path d="M16 50.3481V69.2813C16 70.9551 16.6423 72.5603 17.7856 73.7439C18.929 74.9274 20.4797 75.5923 22.0966 75.5923H27.4006" stroke="#93A5BC" stroke-width="1.5" stroke-linecap="round" stroke-linejoin="round"/>
<path d="M89.309 75.5921H77.8887V13.7074H103.844C105.215 13.656 106.563 14.0737 107.671 14.8933C108.778 15.7128 109.582 16.8864 109.951 18.2249L114.532 35.367L122.104 37.2855C123.459 37.6243 124.659 38.4232 125.504 39.5492C126.348 40.6751 126.786 42.0603 126.746 43.4739V69.4036C126.746 71.0449 126.102 72.619 124.957 73.7796C123.812 74.9401 122.258 75.5921 120.639 75.5921H115.203" stroke="#93A5BC" stroke-width="1.5" stroke-linecap="round" stroke-linejoin="round"/>
<path d="M40.6331 63.0518C38.1971 63.0518 35.8158 63.7777 33.7903 65.1378C31.7649 66.4979 30.1862 68.431 29.254 70.6928C28.3217 72.9545 28.0778 75.4433 28.5531 77.8443C29.0283 80.2454 30.2014 82.4509 31.9239 84.182C33.6464 85.913 35.8411 87.0919 38.2303 87.5695C40.6195 88.0471 43.096 87.802 45.3465 86.8652C47.5971 85.9283 49.5207 84.3418 50.8741 82.3063C52.2275 80.2708 52.9499 77.8777 52.9499 75.4296C52.9499 72.1468 51.6522 68.9984 49.3424 66.6771C47.0325 64.3558 43.8997 63.0518 40.6331 63.0518ZM102.217 63.0518C99.7807 63.0518 97.3994 63.7777 95.374 65.1378C93.3485 66.4979 91.7698 68.431 90.8376 70.6928C89.9054 72.9545 89.6615 75.4433 90.1367 77.8443C90.6119 80.2454 91.785 82.4509 93.5075 84.182C95.2301 85.913 97.4247 87.0919 99.8139 87.5695C102.203 88.0471 104.68 87.802 106.93 86.8652C109.181 85.9283 111.104 84.3418 112.458 82.3063C113.811 80.2708 114.533 77.8777 114.533 75.4296C114.533 72.1468 113.236 68.9984 110.926 66.6771C108.616 64.3558 105.483 63.0518 102.217 63.0518Z" stroke="#93A5BC" stroke-width="1.5" stroke-linecap="round" stroke-linejoin="round"/>
<path d="M11.0413 6.01732L11.0413 6.01732C8.08001 6.81075 5.12838 7.14416 2.26967 7.00262C1.86664 6.98288 1.491 7.12256 1.19965 7.3998L11.0413 6.01732ZM11.0413 6.01732C14.8504 4.99663 18.3281 3.29173 21.094 1.07227C21.6297 0.642564 22.3705 0.642601 22.9059 1.07224C25.6719 3.29171 29.1497 4.99673 32.9588 6.01742C35.9201 6.81096 38.8713 7.14395 41.7302 7.00273L11.0413 6.01732ZM21.9151 49.2892L21.9155 49.2893C21.9713 49.3001 22.0287 49.3001 22.0845 49.2893L22.0849 49.2892C34.3482 46.9254 43.25 36.1456 43.25 23.6594V8.44851C43.25 8.04627 43.0919 7.67738 42.8005 7.39992L21.9151 49.2892ZM21.9151 49.2892C9.65176 46.9254 0.75 36.1457 0.75 23.6594V8.44841C0.75 8.0462 0.90818 7.67727 1.19959 7.39985L21.9151 49.2892ZM41.7305 7.00272C42.1329 6.98318 42.5092 7.12289 42.8004 7.39979L41.7305 7.00272Z" stroke="#93A5BC" stroke-width="1.5"/>
</svg>
