<svg width="102" height="91" viewBox="0 0 102 91" fill="none" xmlns="http://www.w3.org/2000/svg">
<path d="M62.1863 78.9934H34.332C27.252 78.9737 20.3611 76.7063 14.6527 72.5181C8.94423 68.3299 4.71312 62.4373 2.56924 55.6897C0.425363 48.942 0.479458 41.6879 2.72373 34.973C4.96801 28.2581 9.28653 22.4292 15.0568 18.3267" stroke="#93A5BC" stroke-width="1.5" stroke-linecap="round" stroke-linejoin="round"/>
<path d="M51.0449 67.8506L62.1867 78.9923L51.0449 90.1341" stroke="#93A5BC" stroke-width="1.5" stroke-linecap="round" stroke-linejoin="round"/>
<path d="M39.9033 12.1431H67.7577C74.8377 12.1628 81.7285 14.4302 87.437 18.6184C93.1454 22.8065 97.3765 28.6991 99.5204 35.4468C101.664 42.1944 101.61 49.4485 99.3659 56.1635C97.1216 62.8784 92.8031 68.7072 87.0329 72.8098" stroke="#93A5BC" stroke-width="1.5" stroke-linecap="round" stroke-linejoin="round"/>
<path d="M51.0451 23.2835L39.9033 12.1417L51.0451 1" stroke="#93A5BC" stroke-width="1.5" stroke-linecap="round" stroke-linejoin="round"/>
</svg>
