<svg width="69" height="88" viewBox="0 0 69 88" fill="none" xmlns="http://www.w3.org/2000/svg">
<g clip-path="url(#clip0_1002_2)">
<path fill-rule="evenodd" clip-rule="evenodd" d="M34.4865 1.75C33.6545 1.75 32.8432 2.00455 32.1627 2.47844C31.4823 2.95228 30.966 3.62223 30.6832 4.39668L30.68 4.40537L1.91879 80.2345C1.66168 81.1627 1.69897 82.1473 2.02607 83.0541C2.35668 83.9707 2.96718 84.7628 3.77335 85.3196C4.57952 85.8762 5.541 86.1694 6.52371 86.1577C7.50643 86.1459 8.46047 85.8298 9.25288 85.2541C9.25855 85.2499 9.26428 85.2459 9.27006 85.2419C9.27376 85.2394 9.27748 85.2369 9.28122 85.2344L34.026 68.9377C34.2763 68.7729 34.6007 68.7729 34.851 68.9377L59.5958 85.2344C59.6113 85.2446 59.6264 85.2554 59.641 85.2667C60.4313 85.8755 61.3966 86.2195 62.3974 86.2481C63.3983 86.2767 64.3819 85.9884 65.2063 85.4255C66.0306 84.8627 66.6526 84.0547 66.9837 83.1188C67.312 82.1907 67.3373 81.1838 67.0567 80.241L38.2898 4.39677C38.0068 3.62226 37.4906 2.95228 36.8102 2.47844C36.1297 2.00455 35.3185 1.75 34.4865 1.75ZM31.3055 1.24754C32.238 0.598066 33.3487 0.25 34.4865 0.25C35.6243 0.25 36.7349 0.598076 37.6674 1.24754C38.5987 1.89613 39.3075 2.81409 39.6971 3.8775C39.6977 3.879 39.6982 3.88049 39.6988 3.88199L68.4686 79.7337C68.4723 79.7435 68.4758 79.7534 68.4791 79.7634C68.4811 79.7695 68.4831 79.7757 68.485 79.7819C68.8661 81.0378 68.8355 82.3816 68.3979 83.619C67.9602 84.8563 67.1385 85.9225 66.0521 86.6643C64.9659 87.406 63.6711 87.7851 62.3546 87.7475C61.0477 87.7102 59.7857 87.264 58.7483 86.4724L34.4385 70.4622L10.1202 86.478C9.07868 87.2302 7.82827 87.6422 6.54164 87.6575C5.24906 87.673 3.9834 87.2874 2.92103 86.5539C1.85863 85.8202 1.05216 84.7749 0.615053 83.5631C0.177919 82.3512 0.132175 81.0338 0.48427 79.7947C0.490125 79.7741 0.49686 79.7538 0.504456 79.7337L29.2742 3.88206C29.2748 3.88055 29.2753 3.87905 29.2759 3.87755C29.6654 2.81409 30.3742 1.89612 31.3055 1.24754Z" fill="#93A5BC"/>
</g>
<defs>
<clipPath id="clip0_1002_2">
<rect width="69" height="88" fill="white"/>
</clipPath>
</defs>
</svg>
