<svg width="30" height="30" viewBox="0 0 30 30" fill="none" xmlns="http://www.w3.org/2000/svg">
<path d="M15 30C23.2843 30 30 23.2843 30 15C30 6.71573 23.2843 0 15 0C6.71573 0 0 6.71573 0 15C0 23.2843 6.71573 30 15 30Z" fill="#FF9800"/>
<path d="M14.9995 7.10547C14.2118 7.10547 13.4417 7.33906 12.7867 7.77671C12.1317 8.21435 11.6212 8.8364 11.3198 9.56418C11.0183 10.292 10.9395 11.0928 11.0931 11.8654C11.2468 12.638 11.6261 13.3477 12.1832 13.9047C12.7402 14.4617 13.4499 14.841 14.2225 14.9947C14.9951 15.1484 15.7959 15.0695 16.5237 14.7681C17.2515 14.4666 17.8735 13.9561 18.3112 13.3011C18.7488 12.6462 18.9824 11.8761 18.9824 11.0884C18.9827 10.5653 18.8798 10.0472 18.6797 9.56387C18.4797 9.08053 18.1863 8.64135 17.8164 8.27145C17.4465 7.90156 17.0073 7.60819 16.524 7.40812C16.0406 7.20805 15.5226 7.10521 14.9995 7.10547ZM14.9995 13.0739C14.6068 13.0739 14.2229 12.9574 13.8964 12.7393C13.5699 12.5211 13.3154 12.211 13.1651 11.8482C13.0148 11.4854 12.9755 11.0862 13.0521 10.701C13.1287 10.3159 13.3178 9.96207 13.5955 9.68439C13.8732 9.4067 14.227 9.2176 14.6121 9.14099C14.9973 9.06438 15.3965 9.1037 15.7593 9.25398C16.1221 9.40426 16.4322 9.65875 16.6504 9.98527C16.8686 10.3118 16.985 10.6957 16.985 11.0884C16.9853 11.3492 16.9341 11.6075 16.8344 11.8485C16.7347 12.0895 16.5885 12.3085 16.4041 12.4929C16.2196 12.6773 16.0006 12.8236 15.7596 12.9233C15.5186 13.023 15.2603 13.0742 14.9995 13.0739Z" fill="white"/>
<path d="M20.8696 15.6816C20.7829 15.5267 20.6665 15.3905 20.5271 15.2807C20.3877 15.1709 20.228 15.0896 20.0571 15.0416C19.8863 14.9936 19.7076 14.9797 19.5314 15.0008C19.3552 15.0219 19.1848 15.0775 19.0301 15.1645C16.3183 16.6842 13.6815 16.6842 10.9696 15.1645C10.8141 15.0776 10.643 15.0223 10.4661 15.0016C10.2892 14.9809 10.11 14.9952 9.9386 15.0438C9.76724 15.0923 9.60712 15.1742 9.46739 15.2846C9.32766 15.3951 9.21105 15.532 9.12423 15.6875C9.0374 15.843 8.98205 16.0141 8.96135 16.191C8.94064 16.3679 8.95498 16.5471 9.00355 16.7185C9.10163 17.0646 9.33318 17.3575 9.64725 17.5329C10.5369 18.0378 11.4873 18.4271 12.4755 18.6914L10.5571 20.6098C10.3051 20.8619 10.1635 21.2037 10.1635 21.5602C10.1635 21.9166 10.3051 22.2584 10.5571 22.5105C10.8092 22.7625 11.151 22.9041 11.5075 22.9041C11.8639 22.9041 12.2057 22.7625 12.4578 22.5105L14.9999 19.9585L17.542 22.5006C17.794 22.7527 18.1359 22.8942 18.4923 22.8942C18.8488 22.8942 19.1906 22.7527 19.4426 22.5006C19.6947 22.2486 19.8362 21.9067 19.8362 21.5503C19.8362 21.1939 19.6947 20.852 19.4426 20.6L17.5242 18.6816C18.5124 18.4172 19.4629 18.0279 20.3525 17.523C20.5076 17.4363 20.6441 17.3198 20.7541 17.1802C20.864 17.0406 20.9454 16.8807 20.9934 16.7097C21.0415 16.5386 21.0553 16.3597 21.034 16.1833C21.0128 16.0068 20.9569 15.8363 20.8696 15.6816Z" fill="white"/>
</svg>
