<svg width="30" height="30" viewBox="0 0 30 30" fill="none" xmlns="http://www.w3.org/2000/svg">
<path d="M15 30C23.2843 30 30 23.2843 30 15C30 6.71573 23.2843 0 15 0C6.71573 0 0 6.71573 0 15C0 23.2843 6.71573 30 15 30Z" fill="#D44444"/>
<path d="M19.974 9H10.026C9.62845 9 9.2348 9.07834 8.86754 9.23053C8.50028 9.38273 8.1666 9.6058 7.88559 9.887C7.60457 10.1682 7.38172 10.502 7.22977 10.8694C7.07781 11.2367 6.99974 11.6305 7 12.028V17.408C6.99974 17.8055 7.07781 18.1993 7.22977 18.5666C7.38172 18.934 7.60457 19.2678 7.88559 19.549C8.1666 19.8302 8.50028 20.0533 8.86754 20.2055C9.2348 20.3577 9.62845 20.436 10.026 20.436H19.974C20.3715 20.436 20.7652 20.3577 21.1325 20.2055C21.4997 20.0533 21.8334 19.8302 22.1144 19.549C22.3954 19.2678 22.6183 18.934 22.7702 18.5666C22.9222 18.1993 23.0003 17.8055 23 17.408V12.028C23.0003 11.6305 22.9222 11.2367 22.7702 10.8694C22.6183 10.502 22.3954 10.1682 22.1144 9.887C21.8334 9.6058 21.4997 9.38273 21.1325 9.23053C20.7652 9.07834 20.3715 9 19.974 9ZM12.892 17.17V12.266L17.108 14.718L12.892 17.17Z" fill="white"/>
</svg>
