<svg width="15" height="16" viewBox="0 0 15 16" fill="none" xmlns="http://www.w3.org/2000/svg">
<g clip-path="url(#clip0_1024_9)">
<path fill-rule="evenodd" clip-rule="evenodd" d="M9.14732 4.08729C9.14732 2.87291 8.09452 1.88877 6.83261 2.01037L6.829 2.01072L6.829 2.01071C5.84201 2.10221 4.93359 3.13702 4.93359 4.21759V4.8828C4.93359 5.43509 4.48588 5.8828 3.93359 5.8828C3.38131 5.8828 2.93359 5.43509 2.93359 4.8828V4.21759C2.93359 2.21272 4.52359 0.21691 6.64258 0.0194209C9.08053 -0.214472 11.1473 1.69504 11.1473 4.08729V5.03368C11.1473 5.58597 10.6996 6.03368 10.1473 6.03368C9.59504 6.03368 9.14732 5.58597 9.14732 5.03368V4.08729Z" fill="white"/>
<path fill-rule="evenodd" clip-rule="evenodd" d="M0.718918 5.35272C1.46601 4.47047 2.69035 4.10742 4.27998 4.10742H9.80333C11.393 4.10742 12.6173 4.47046 13.3644 5.35271C14.1037 6.22575 14.1442 7.34001 14.0422 8.25616L14.0405 8.27033L13.5237 12.3765C13.4436 13.1124 13.2467 14.0332 12.4802 14.7289C11.721 15.4177 10.6018 15.7084 9.11291 15.7084H4.9704C3.4815 15.7084 2.3623 15.4177 1.60318 14.7289C0.836581 14.0332 0.63975 13.1124 0.559579 12.3765L0.0428424 8.27031L0.0411654 8.25617C-0.0608998 7.34002 -0.0203735 6.22576 0.718918 5.35272ZM2.02812 8.02795L2.545 12.1353L2.54706 12.1529C2.61251 12.7596 2.73826 13.0582 2.94718 13.2478C3.16672 13.447 3.68381 13.7084 4.9704 13.7084H9.11291C10.3995 13.7084 10.9166 13.447 11.1362 13.2478C11.345 13.0582 11.4708 12.7597 11.5362 12.153L11.5383 12.1353L12.0552 8.02791C12.1382 7.27515 12.0303 6.87215 11.8381 6.64518C11.6532 6.42674 11.1618 6.10742 9.80333 6.10742H4.27998C2.92152 6.10742 2.43018 6.42674 2.2452 6.64518C2.05301 6.87214 1.94516 7.27516 2.02812 8.02795Z" fill="white"/>
</g>
<defs>
<clipPath id="clip0_1024_9">
<rect width="15" height="16" fill="white"/>
</clipPath>
</defs>
</svg>
