<svg width="20" height="23" viewBox="0 0 20 23" fill="none" xmlns="http://www.w3.org/2000/svg">
<g clip-path="url(#clip0_942_12)">
<path fill-rule="evenodd" clip-rule="evenodd" d="M13.632 5.63131C13.632 3.50768 11.808 1.80816 9.64753 2.0178L9.6439 2.01814C7.90117 2.18083 6.375 3.96849 6.375 5.82678V6.82468C6.375 7.37697 5.92728 7.82468 5.375 7.82468C4.82272 7.82468 4.375 7.37697 4.375 6.82468V5.82678C4.375 3.05623 6.57128 0.297353 9.45618 0.0269699C12.808 -0.297218 15.632 2.34428 15.632 5.63131V7.051C15.632 7.60329 15.1843 8.051 14.632 8.051C14.0798 8.051 13.632 7.60329 13.632 7.051V5.63131Z" fill="#D2AF6F"/>
<path fill-rule="evenodd" clip-rule="evenodd" d="M0.952853 7.85587C1.92766 6.69671 3.57302 6.16211 5.88643 6.16211H14.115C16.4283 6.16211 18.0737 6.69671 19.0485 7.85587C20.0137 9.00366 20.0906 10.496 19.9431 11.8295L19.9414 11.8435L19.1711 18.0076C19.0557 19.0777 18.7812 20.3044 17.7761 21.2227C16.7773 22.1354 15.2563 22.5647 13.0864 22.5647H6.91499C4.74508 22.5647 3.22405 22.1354 2.2252 21.2227C1.22014 20.3044 0.945699 19.0777 0.830272 18.0076L0.0599214 11.8435L0.0582666 11.8295C-0.0892532 10.496 -0.01239 9.00366 0.952853 7.85587ZM2.04538 11.6027L2.8159 17.7681L2.81793 17.7856C2.91907 18.7297 3.12418 19.335 3.57431 19.7463C4.03344 20.1658 4.95009 20.5647 6.91499 20.5647H13.0864C15.0512 20.5647 15.9679 20.1658 16.4271 19.7463C16.8772 19.335 17.0823 18.7296 17.1834 17.7856L17.1855 17.7681L17.956 11.6027C18.0848 10.4298 17.9403 9.64552 17.5178 9.14312C17.1041 8.65112 16.1935 8.16211 14.115 8.16211H5.88643C3.80789 8.16211 2.89728 8.65113 2.48354 9.14312C2.06105 9.64551 1.91651 10.4297 2.04538 11.6027Z" fill="#D2AF6F"/>
</g>
<defs>
<clipPath id="clip0_942_12">
<rect width="20" height="23" fill="white"/>
</clipPath>
</defs>
</svg>
