<svg width="21" height="20" viewBox="0 0 21 20" fill="none" xmlns="http://www.w3.org/2000/svg">
<g clip-path="url(#clip0_1007_2)">
<path fill-rule="evenodd" clip-rule="evenodd" d="M19.7246 0.292892C20.1151 0.683416 20.1151 1.31658 19.7246 1.70711L2.04695 19.3848C1.65643 19.7753 1.02326 19.7753 0.632738 19.3848C0.242213 18.9943 0.242212 18.3611 0.632736 17.9706L18.3104 0.292894C18.7009 -0.0976305 19.3341 -0.0976316 19.7246 0.292892Z" fill="black"/>
<path fill-rule="evenodd" clip-rule="evenodd" d="M0.292893 0.45305C0.683417 0.0625254 1.31658 0.0625249 1.70711 0.453049L19.3848 18.1307C19.7753 18.5212 19.7753 19.1544 19.3848 19.5449C18.9943 19.9355 18.3611 19.9355 17.9706 19.5449L0.292894 1.86726C-0.0976308 1.47674 -0.0976313 0.843575 0.292893 0.45305Z" fill="black"/>
</g>
<defs>
<clipPath id="clip0_1007_2">
<rect width="21" height="20" fill="white"/>
</clipPath>
</defs>
</svg>
