<svg width="23" height="19" viewBox="0 0 23 19" fill="none" xmlns="http://www.w3.org/2000/svg">
<path fill-rule="evenodd" clip-rule="evenodd" d="M2.54102 1C2.54102 0.723858 2.76487 0.5 3.04102 0.5H11.4993C11.9524 0.5 12.3869 0.679985 12.7073 1.00036C13.0277 1.32073 13.2077 1.75525 13.2077 2.20833V15.5C13.2077 15.7761 12.9838 16 12.7077 16H8.07977C7.80362 16 7.57977 15.7761 7.57977 15.5C7.57977 15.2239 7.80362 15 8.07977 15H12.2077V2.20833C12.2077 2.02047 12.1331 1.8403 12.0002 1.70747C11.8674 1.57463 11.6872 1.5 11.4993 1.5H3.04102C2.76487 1.5 2.54102 1.27614 2.54102 1Z" fill="#93A5BC"/>
<path fill-rule="evenodd" clip-rule="evenodd" d="M0.625 10.167C0.901142 10.167 1.125 10.3908 1.125 10.667V14.292C1.125 14.4799 1.19963 14.66 1.33247 14.7929C1.4653 14.9257 1.64547 15.0003 1.83333 15.0003H2.88458C3.16073 15.0003 3.38458 15.2242 3.38458 15.5003C3.38458 15.7765 3.16073 16.0003 2.88458 16.0003H1.83333C1.38026 16.0003 0.945735 15.8203 0.625359 15.5C0.304984 15.1796 0.125 14.7451 0.125 14.292V10.667C0.125 10.3908 0.348858 10.167 0.625 10.167Z" fill="#93A5BC"/>
<path fill-rule="evenodd" clip-rule="evenodd" d="M18.3067 4.05224C18.1782 3.95844 18.0219 3.91062 17.8629 3.9165C17.8567 3.91673 17.8506 3.91684 17.8444 3.91684H13.209V15.0002H14.9686C15.2447 15.0002 15.4686 15.224 15.4686 15.5002C15.4686 15.7763 15.2447 16.0002 14.9686 16.0002H12.709C12.4328 16.0002 12.209 15.7763 12.209 15.5002V3.41684C12.209 3.1407 12.4328 2.91684 12.709 2.91684H17.836C18.2159 2.90503 18.5891 3.0203 18.8963 3.24455C19.2062 3.47078 19.4309 3.79475 19.5343 4.16427L19.5354 4.16825L19.5354 4.16825L20.3649 7.2321L21.5771 7.53515C21.5774 7.53522 21.5776 7.53528 21.5779 7.53535C21.9566 7.62899 22.2919 7.84944 22.5279 8.16005C22.7626 8.46878 22.8851 8.84809 22.8757 9.23559V14.2918C22.8757 14.7449 22.6957 15.1794 22.3753 15.4998C22.0549 15.8202 21.6204 16.0002 21.1673 16.0002H20.0919C19.8158 16.0002 19.5919 15.7763 19.5919 15.5002C19.5919 15.224 19.8158 15.0002 20.0919 15.0002H21.1673C21.3552 15.0002 21.5353 14.9255 21.6682 14.7927C21.801 14.6599 21.8757 14.4797 21.8757 14.2918V9.22892L21.8759 9.21436C21.8806 9.05255 21.8297 8.89401 21.7318 8.76513C21.6338 8.63626 21.4947 8.54481 21.3375 8.50603L21.336 8.50566L19.8377 8.13108C19.662 8.08714 19.5237 7.95156 19.4764 7.77668L18.5707 4.43189C18.5277 4.27938 18.4347 4.14569 18.3067 4.05224Z" fill="#93A5BC"/>
<path fill-rule="evenodd" clip-rule="evenodd" d="M0.125 5.8335C0.125 5.55735 0.348858 5.3335 0.625 5.3335H7.875C8.15114 5.3335 8.375 5.55735 8.375 5.8335C8.375 6.10964 8.15114 6.3335 7.875 6.3335H0.625C0.348858 6.3335 0.125 6.10964 0.125 5.8335ZM3.83792 13.075C4.31756 12.7546 4.88147 12.5835 5.45833 12.5835C6.23188 12.5835 6.97375 12.8908 7.52073 13.4378C8.06771 13.9847 8.375 14.7266 8.375 15.5002C8.375 16.077 8.20394 16.6409 7.88345 17.1206C7.56297 17.6002 7.10744 17.9741 6.57449 18.1948C6.04154 18.4156 5.4551 18.4733 4.88932 18.3608C4.32354 18.2482 3.80384 17.9705 3.39594 17.5626C2.98804 17.1547 2.71025 16.635 2.59771 16.0692C2.48517 15.5034 2.54293 14.917 2.76368 14.384C2.98444 13.8511 3.35828 13.3955 3.83792 13.075ZM5.45833 13.5835C5.07925 13.5835 4.70868 13.6959 4.39349 13.9065C4.0783 14.1171 3.83263 14.4165 3.68756 14.7667C3.5425 15.1169 3.50454 15.5023 3.57849 15.8741C3.65245 16.2459 3.83499 16.5874 4.10305 16.8555C4.3711 17.1235 4.71261 17.306 5.08441 17.38C5.45621 17.454 5.84159 17.416 6.19181 17.2709C6.54204 17.1259 6.84138 16.8802 7.05198 16.565C7.26259 16.2498 7.375 15.8792 7.375 15.5002C7.375 14.9918 7.17307 14.5043 6.81362 14.1449C6.45418 13.7854 5.96666 13.5835 5.45833 13.5835ZM15.9213 13.075C16.4009 12.7546 16.9648 12.5835 17.5417 12.5835C18.3152 12.5835 19.0571 12.8908 19.6041 13.4378C20.151 13.9847 20.4583 14.7266 20.4583 15.5002C20.4583 16.077 20.2873 16.6409 19.9668 17.1206C19.6463 17.6002 19.1908 17.9741 18.6578 18.1948C18.1249 18.4156 17.5384 18.4733 16.9727 18.3608C16.4069 18.2482 15.8872 17.9705 15.4793 17.5626C15.0714 17.1547 14.7936 16.635 14.681 16.0692C14.5685 15.5034 14.6263 14.917 14.847 14.384C15.0678 13.8511 15.4416 13.3955 15.9213 13.075ZM17.5417 13.5835C17.1626 13.5835 16.792 13.6959 16.4768 13.9065C16.1616 14.1171 15.916 14.4165 15.7709 14.7667C15.6258 15.1169 15.5879 15.5023 15.6618 15.8741C15.7358 16.2459 15.9183 16.5874 16.1864 16.8555C16.4544 17.1235 16.7959 17.306 17.1677 17.38C17.5395 17.454 17.9249 17.416 18.2751 17.2709C18.6254 17.1259 18.9247 16.8802 19.1353 16.565C19.3459 16.2498 19.4583 15.8792 19.4583 15.5002C19.4583 14.9918 19.2564 14.5043 18.897 14.1449C18.5375 13.7854 18.05 13.5835 17.5417 13.5835Z" fill="#93A5BC"/>
</svg>
