<svg width="21" height="18" viewBox="0 0 21 18" fill="none" xmlns="http://www.w3.org/2000/svg">
<path fill-rule="evenodd" clip-rule="evenodd" d="M10 3.75C10 3.33579 10.1718 3 10.3837 3H20.6163C20.8282 3 21 3.33579 21 3.75C21 4.16421 20.8282 4.5 20.6163 4.5H10.3837C10.1718 4.5 10 4.16421 10 3.75Z" fill="black"/>
<path fill-rule="evenodd" clip-rule="evenodd" d="M16.5 14C16.5 13.5858 16.7747 13.25 17.1136 13.25H20.3864C20.7253 13.25 21 13.5858 21 14C21 14.4142 20.7253 14.75 20.3864 14.75H17.1136C16.7747 14.75 16.5 14.4142 16.5 14Z" fill="black"/>
<path fill-rule="evenodd" clip-rule="evenodd" d="M0 14C0 13.5858 0.335786 13.25 0.75 13.25H5.75C6.16421 13.25 6.5 13.5858 6.5 14C6.5 14.4142 6.16421 14.75 5.75 14.75H0.75C0.335786 14.75 0 14.4142 0 14Z" fill="black"/>
<path fill-rule="evenodd" clip-rule="evenodd" d="M0 3.75C0 3.33579 0.232468 3 0.519231 3H3.98077C4.26753 3 4.5 3.33579 4.5 3.75C4.5 4.16421 4.26753 4.5 3.98077 4.5H0.519231C0.232468 4.5 0 4.16421 0 3.75Z" fill="black"/>
<path fill-rule="evenodd" clip-rule="evenodd" d="M7 1.5C5.61929 1.5 4.5 2.61929 4.5 4C4.5 5.38071 5.61929 6.5 7 6.5C8.38071 6.5 9.5 5.38071 9.5 4C9.5 2.61929 8.38071 1.5 7 1.5ZM3 4C3 1.79086 4.79086 0 7 0C9.20914 0 11 1.79086 11 4C11 6.20914 9.20914 8 7 8C4.79086 8 3 6.20914 3 4Z" fill="black"/>
<path fill-rule="evenodd" clip-rule="evenodd" d="M13 11.5C11.6193 11.5 10.5 12.6193 10.5 14C10.5 15.3807 11.6193 16.5 13 16.5C14.3807 16.5 15.5 15.3807 15.5 14C15.5 12.6193 14.3807 11.5 13 11.5ZM9 14C9 11.7909 10.7909 10 13 10C15.2091 10 17 11.7909 17 14C17 16.2091 15.2091 18 13 18C10.7909 18 9 16.2091 9 14Z" fill="black"/>
</svg>
