<svg width="88" height="88" viewBox="0 0 88 88" fill="none" xmlns="http://www.w3.org/2000/svg">
<path d="M14.33 51.4849L1 70.5482L15.4767 74.8482L24.4589 86.9837L37.9322 67.7771" stroke="#93A5BC" stroke-width="1.5" stroke-linecap="round" stroke-linejoin="round"/>
<path d="M73.6696 51.4849L86.9996 70.5482L72.5229 74.8482L63.5407 86.9837L50.0674 67.7771" stroke="#93A5BC" stroke-width="1.5" stroke-linecap="round" stroke-linejoin="round"/>
<path d="M78.7822 34.4279C78.7822 38.059 75.5811 41.1168 74.53 44.3657C73.4789 47.6146 74.1955 52.0579 72.1411 54.8768C70.0866 57.6957 65.6911 58.3168 63.1111 60.419C60.5311 62.5213 58.3333 66.439 54.9889 67.5379C51.6444 68.6368 47.87 66.5346 44.2389 66.5346C40.6078 66.5346 36.7378 68.589 33.4889 67.5379C30.24 66.4868 28.1855 62.4257 25.3667 60.419C22.5478 58.4124 18.1522 57.6957 16.0978 54.8768C14.0433 52.0579 14.8078 47.7102 13.7089 44.3657C12.61 41.0213 9.21777 38.059 9.21777 34.4279C9.21777 30.7968 12.4189 27.7391 13.47 24.4902C14.5211 21.2413 13.8044 16.7979 15.8589 13.9791C17.9133 11.1602 22.3089 10.5391 25.1278 8.43684C27.9467 6.33462 29.6667 2.41684 33.25 1.31796C36.8333 0.219068 40.3689 2.32129 44 2.32129C47.6311 2.32129 51.5011 0.266846 54.75 1.31796C57.9989 2.36907 60.0533 6.43018 63.1111 8.43684C66.1689 10.4435 70.3255 11.1602 72.38 13.9791C74.4344 16.7979 73.67 21.1457 74.7689 24.4902C75.8678 27.8346 78.7822 30.7968 78.7822 34.4279Z" stroke="#93A5BC" stroke-width="1.5" stroke-linecap="round" stroke-linejoin="round"/>
</svg>
