<svg width="89" height="89" viewBox="0 0 89 89" fill="none" xmlns="http://www.w3.org/2000/svg">
<path d="M87.0311 39.3639C87.224 40.9551 87.3201 42.5566 87.3189 44.1594C87.3189 52.6955 84.7876 61.04 80.0452 68.1375C75.3028 75.235 68.5622 80.7669 60.6758 84.0335C52.7895 87.3002 44.1116 88.1549 35.7395 86.4895C27.3673 84.8242 19.6771 80.7137 13.6411 74.6777C7.60517 68.6418 3.49463 60.9515 1.82932 52.5794C0.164 44.2073 1.0187 35.5294 4.28533 27.643C7.55197 19.7567 13.0838 13.0161 20.1814 8.27367C27.2789 3.53126 35.6233 1 44.1594 1C50.8423 1.06237 57.4154 2.70566 63.3414 5.79549" stroke="#93A5BC" stroke-width="1.5" stroke-linecap="round" stroke-linejoin="round"/>
<path d="M87.3189 10.5908L44.1595 53.7502L24.9775 34.5683" stroke="#93A5BC" stroke-width="1.5" stroke-linecap="round" stroke-linejoin="round"/>
</svg>
