<svg width="85" height="76" viewBox="0 0 85 76" fill="none" xmlns="http://www.w3.org/2000/svg">
<path d="M77.3996 7.66C81.6267 11.9161 84 17.6785 84 23.6856C84 29.6927 81.6267 35.4552 77.3996 39.7112L42.489 75L7.57835 39.7112C4.4389 36.5415 2.30151 32.5134 1.43375 28.1313C0.565983 23.7492 1.0064 19.2077 2.69986 15.0754C4.39333 10.9431 7.2646 7.40354 10.9542 4.89987C14.6439 2.39619 18.9879 1.03963 23.4426 1C29.3993 1.03625 35.1008 3.42979 39.3069 7.66C40.5337 8.87741 41.6027 10.2448 42.489 11.73C43.3752 10.2448 44.4443 8.87741 45.6711 7.66C47.7435 5.55125 50.2132 3.87672 52.9367 2.73375C55.6602 1.59078 58.583 1.00218 61.5353 1.00218C64.4876 1.00218 67.4105 1.59078 70.134 2.73375C72.8575 3.87672 75.3272 5.55125 77.3996 7.66Z" stroke="#93A5BC" stroke-width="1.5" stroke-linecap="round" stroke-linejoin="round"/>
</svg>
