<svg width="73" height="88" viewBox="0 0 73 88" fill="none" xmlns="http://www.w3.org/2000/svg">
<path d="M61.5866 25.8444L68.6866 18.6778M11.4133 25.8444L4.31333 18.6778M36.5 15.3333C43.5212 15.3333 50.3848 17.4349 56.2227 21.3723C62.0607 25.3098 66.6108 30.9062 69.2977 37.4538C71.9846 44.0015 72.6876 51.2064 71.3179 58.1574C69.9481 65.1084 66.567 71.4933 61.6023 76.5046C56.6375 81.516 50.312 84.9288 43.4257 86.3115C36.5394 87.6941 29.4015 86.9845 22.9147 84.2723C16.428 81.5602 10.8836 76.9673 6.98283 71.0746C3.08204 65.1818 1 58.2538 1 51.1667C1 41.6631 4.74017 32.5487 11.3977 25.8287C18.0552 19.1086 27.0848 15.3333 36.5 15.3333ZM36.5 15.3333V1M22.3 1H50.7" stroke="#93A5BC" stroke-width="1.5" stroke-linecap="round" stroke-linejoin="round"/>
<path d="M36.8762 63.7522H23.0001C22.9935 61.3387 23.6266 58.9666 24.8349 56.8774C26.0431 54.7881 27.7835 53.0564 29.8786 51.8584L33.3873 49.8761C34.4341 49.2719 35.306 48.4062 35.9176 47.3637C36.5292 46.3212 36.8595 45.1377 36.8762 43.9292V42.9381C36.8762 41.098 36.1452 39.3332 34.844 38.0321C33.5429 36.731 31.7782 36 29.9381 36C28.098 36 26.3333 36.731 25.0322 38.0321C23.731 39.3332 23.0001 41.098 23.0001 42.9381V43.9292" stroke="#93A5BC" stroke-width="1.5" stroke-linecap="round" stroke-linejoin="round"/>
<path d="M51.0001 53.8407H37.124L51.0001 36V63.7522" stroke="#93A5BC" stroke-width="1.5" stroke-linecap="round" stroke-linejoin="round"/>
</svg>
