<svg width="201" height="185" viewBox="0 0 201 185" fill="none" xmlns="http://www.w3.org/2000/svg">
<path d="M145.668 0C176.048 0 200.668 25 200.668 60C200.668 130 125.668 170 100.668 185C75.668 170 0.667969 130 0.667969 60C0.667969 25 25.668 0 55.668 0C74.268 0 90.668 10 100.668 20C110.668 10 127.068 0 145.668 0ZM110.008 156.04C118.818 150.48 126.768 144.95 134.208 139.03C164.018 115.33 180.668 89.43 180.668 60C180.668 36.4 165.298 20 145.668 20C134.908 20 123.268 25.7 114.808 34.14L100.668 48.28L86.528 34.14C78.068 25.7 66.428 20 55.668 20C36.268 20 20.668 36.56 20.668 60C20.668 89.44 37.328 115.33 67.118 139.03C74.568 144.95 82.518 150.48 91.328 156.03C94.318 157.92 97.278 159.73 100.668 161.75C104.058 159.73 107.018 157.92 110.008 156.04Z" fill="black"/>
</svg>
