<svg width="15" height="19" viewBox="0 0 15 19" fill="none" xmlns="http://www.w3.org/2000/svg">
<g clip-path="url(#clip0_101_378)">
<path fill-rule="evenodd" clip-rule="evenodd" d="M11.0602 7.72664C11.0602 8.38592 10.8647 9.03038 10.4985 9.57854C10.1322 10.1267 9.61159 10.554 9.0025 10.8062C8.39341 11.0585 7.72319 11.1245 7.07659 10.9959C6.42998 10.8673 5.83604 10.5498 5.36987 10.0837C4.90369 9.61749 4.58622 9.02355 4.45761 8.37695C4.32899 7.73034 4.395 7.06012 4.64729 6.45103C4.89958 5.84195 5.32682 5.32135 5.87499 4.95508C6.42315 4.58881 7.06762 4.39331 7.72689 4.39331C8.61095 4.39331 9.45879 4.7445 10.0839 5.36962C10.709 5.99474 11.0602 6.84259 11.0602 7.72664ZM9.39356 7.72664C9.39356 8.05628 9.29581 8.37851 9.11267 8.65259C8.92954 8.92668 8.66924 9.1403 8.36469 9.26644C8.06015 9.39259 7.72504 9.42559 7.40174 9.36129C7.07844 9.29698 6.78147 9.13824 6.54838 8.90516C6.31529 8.67207 6.15656 8.3751 6.09225 8.05179C6.02794 7.72849 6.06094 7.39338 6.18709 7.08884C6.31324 6.78429 6.52686 6.524 6.80094 6.34086C7.07502 6.15773 7.39725 6.05998 7.72689 6.05998C8.16892 6.05998 8.59284 6.23557 8.9054 6.54813C9.21796 6.86069 9.39356 7.28462 9.39356 7.72664Z" fill="#D2AF6F"/>
<path fill-rule="evenodd" clip-rule="evenodd" d="M2.32834 12.9315C1.25404 11.9086 0.507174 10.5902 0.1822 9.14285C-0.142775 7.69552 -0.0312677 6.18433 0.502621 4.80037C1.03651 3.41642 1.9688 2.22186 3.1816 1.36776C4.3944 0.513656 5.83323 0.0383724 7.31615 0.00201037C8.79907 -0.0343517 10.2595 0.369841 11.5127 1.16348C12.7659 1.95711 13.7556 3.10454 14.3567 4.46067C14.9578 5.81679 15.1432 7.3207 14.8895 8.78222C14.6359 10.2437 13.9546 11.5972 12.9317 12.6715L7.76 18.1032L2.32834 12.9315ZM11.7222 11.5221L7.70001 15.7443L3.47778 11.7221C2.64232 10.9265 2.06153 9.90098 1.80886 8.7753C1.55619 7.64963 1.64299 6.47431 2.05827 5.39796C2.47355 4.32161 3.19867 3.39257 4.14194 2.72832C5.08521 2.06407 6.20426 1.69443 7.3576 1.66616C8.51093 1.63788 9.64676 1.95223 10.6214 2.56945C11.5961 3.18668 12.3659 4.07907 12.8334 5.13377C13.301 6.18848 13.4453 7.35813 13.2481 8.49483C13.0509 9.63154 12.521 10.6842 11.7256 11.5198L11.7222 11.5221Z" fill="#D2AF6F"/>
</g>
<defs>
<clipPath id="clip0_101_378">
<rect width="15" height="18.1033" fill="white"/>
</clipPath>
</defs>
</svg>
