<svg width="90" height="36" viewBox="0 0 90 36" fill="none" xmlns="http://www.w3.org/2000/svg">
<g clip-path="url(#clip0_1032_8)">
<path d="M6.59655 12.332C7.59081 12.332 8.4831 12.5105 9.27341 12.8674C10.0637 13.2115 10.7329 13.6832 11.2811 14.2823C11.8419 14.8687 12.2689 15.557 12.5621 16.3473C12.868 17.1249 13.021 17.9407 13.021 18.7947C13.021 19.7507 12.8426 20.6303 12.4856 21.4333C12.1415 22.2364 11.6635 22.9247 11.0516 23.4983C10.4398 24.0719 9.72592 24.5245 8.91012 24.8559C8.10706 25.1746 7.24664 25.3339 6.32886 25.3339C5.34735 25.3339 4.46143 25.1554 3.67112 24.7985C2.89356 24.4416 2.23072 23.97 1.6826 23.3836C1.14723 22.7973 0.73295 22.1217 0.43977 21.3568C0.14659 20.592 0 19.7953 0 18.9668C0 18.151 0.14659 17.3479 0.43977 16.5576C0.73295 15.7546 1.15997 15.0407 1.72084 14.4161C2.29445 13.7915 2.98916 13.288 3.80497 12.9056C4.62077 12.5232 5.5513 12.332 6.59655 12.332ZM6.57743 24.6647C7.43147 24.6264 8.17717 24.4352 8.81452 24.0911C9.46461 23.7342 10.0064 23.288 10.4398 22.7526C10.8731 22.2045 11.1918 21.6054 11.3958 20.9553C11.6125 20.3052 11.7208 19.6615 11.7208 19.0242C11.7208 18.3231 11.5934 17.6156 11.3384 16.9018C11.0835 16.188 10.7202 15.5442 10.2485 14.9706C9.77691 14.3843 9.20967 13.9126 8.54683 13.5557C7.89674 13.1861 7.16379 13.0012 6.34798 13.0012C5.55767 13.0012 4.85022 13.1797 4.22561 13.5366C3.60101 13.8808 3.06564 14.3269 2.6195 14.875C2.1861 15.4231 1.85468 16.035 1.62524 16.7106C1.39579 17.3862 1.28107 18.049 1.28107 18.6991C1.28107 19.4002 1.41491 20.1076 1.6826 20.8215C1.95028 21.5226 2.31995 22.1599 2.79158 22.7335C3.26322 23.3071 3.81771 23.7724 4.45506 24.1293C5.10515 24.4862 5.81261 24.6647 6.57743 24.6647Z" fill="#D2AF6F"/>
<path d="M24.2918 24.4734V26.8634H24.1006C24.0878 26.6977 24.0432 26.5129 23.9667 26.3089C23.8902 26.105 23.7819 25.9138 23.6417 25.7353C23.5142 25.5696 23.3612 25.4294 23.1828 25.3147C23.0043 25.2 22.8067 25.1426 22.59 25.1426H13.7755C13.5588 25.1426 13.3612 25.2 13.1828 25.3147C13.0043 25.4421 12.845 25.5887 12.7048 25.7544C12.5773 25.9329 12.469 26.1241 12.3797 26.3281C12.3032 26.532 12.2586 26.7105 12.2459 26.8634H12.0547V24.4734H12.896C13.3039 24.4734 13.5907 24.2376 13.7564 23.7659L18.1541 12.2363L22.59 23.7086C22.6793 23.8998 22.8004 24.0782 22.9533 24.2439C23.1063 24.3969 23.2847 24.4734 23.4887 24.4734H24.2918ZM14.1771 24.4734H21.5384L17.8482 14.9705L14.1771 24.4734Z" fill="#D2AF6F"/>
<path d="M33.4738 24.9517H33.5694C33.6586 24.9517 33.7415 24.9198 33.818 24.8561C33.8944 24.7796 33.9582 24.6904 34.0092 24.5884C34.0729 24.4737 34.1175 24.359 34.143 24.2442C34.1685 24.1168 34.1812 24.002 34.1812 23.9001V18.6993H28.0627V23.9001C28.0627 24.002 28.0755 24.1168 28.101 24.2442C28.1264 24.359 28.1647 24.4673 28.2157 24.5693C28.2667 24.6713 28.324 24.7605 28.3878 24.837C28.4642 24.9134 28.5535 24.9517 28.6554 24.9517H28.751V25.1429H26.0742V24.9517H26.1698C26.259 24.9517 26.3419 24.9198 26.4184 24.8561C26.4948 24.7796 26.5586 24.6904 26.6096 24.5884C26.6733 24.4737 26.7179 24.359 26.7434 24.2442C26.7689 24.1168 26.7816 24.002 26.7816 23.9001V13.7089C26.7816 13.6196 26.7689 13.5177 26.7434 13.403C26.7179 13.2882 26.6797 13.1799 26.6287 13.0779C26.5777 12.9759 26.514 12.8931 26.4375 12.8293C26.361 12.7529 26.2718 12.7146 26.1698 12.7146H26.0742V12.5234H28.751V12.7146H28.6554C28.5535 12.7146 28.4642 12.7529 28.3878 12.8293C28.3113 12.8931 28.2475 12.9759 28.1966 13.0779C28.1583 13.1799 28.1264 13.2882 28.101 13.403C28.0755 13.5177 28.0627 13.6196 28.0627 13.7089V18.0301H34.1812V13.7089C34.1812 13.6196 34.1685 13.5177 34.143 13.403C34.1175 13.2882 34.0793 13.1799 34.0283 13.0779C33.9773 12.9759 33.9136 12.8931 33.8371 12.8293C33.7606 12.7529 33.6714 12.7146 33.5694 12.7146H33.4738V12.5234H36.1507V12.7146H36.0551C35.9531 12.7146 35.8638 12.7529 35.7874 12.8293C35.7109 12.8931 35.6471 12.9759 35.5962 13.0779C35.5579 13.1799 35.5261 13.2882 35.5006 13.403C35.4751 13.5177 35.4623 13.6196 35.4623 13.7089V23.9001C35.4623 24.002 35.4751 24.1168 35.5006 24.2442C35.5388 24.359 35.5834 24.4673 35.6344 24.5693C35.6854 24.6713 35.7427 24.7605 35.8065 24.837C35.883 24.9134 35.9658 24.9517 36.0551 24.9517H36.1507V25.1429H33.4738V24.9517Z" fill="#D2AF6F"/>
<path d="M54.6964 24.9517H54.792C54.894 24.9517 54.9832 24.9198 55.0597 24.8561C55.1362 24.7796 55.1999 24.6904 55.2509 24.5884C55.3019 24.4737 55.3401 24.359 55.3656 24.2442C55.3911 24.1168 55.4039 24.002 55.4039 23.9001V18.5272C54.8558 18.5272 54.4032 18.6866 54.0463 19.0052C53.6894 19.3112 53.3962 19.6936 53.1668 20.1525L51.6372 23.2309C51.5224 23.473 51.395 23.7089 51.2547 23.9383C51.1273 24.1678 50.9743 24.3717 50.7959 24.5502C50.6174 24.7286 50.4071 24.8752 50.1649 24.9899C49.9227 25.0919 49.6231 25.1429 49.2662 25.1429H48.3867V24.9517C48.6289 24.9517 48.8519 24.8816 49.0559 24.7414C49.2598 24.5884 49.4383 24.4099 49.5913 24.206C49.757 23.9893 49.8972 23.7726 50.0119 23.5559C50.1394 23.3392 50.2414 23.1544 50.3178 23.0014L51.8284 19.9421C52.1215 19.3303 52.4976 18.8586 52.9565 18.5272C53.4281 18.1958 54.0463 18.0301 54.8111 18.0301L50.509 13.4986C50.2923 13.2691 50.0756 13.0843 49.8589 12.9441C49.655 12.8038 49.4383 12.7274 49.2089 12.7146V12.5234H51.293V12.7146C51.1528 12.7529 51.0827 12.823 51.0827 12.9249C51.0827 12.9632 51.1082 13.0205 51.1591 13.097L55.4039 17.6477V13.7089C55.4039 13.6196 55.3911 13.5177 55.3656 13.403C55.3401 13.2882 55.3019 13.1799 55.2509 13.0779C55.1999 12.9759 55.1362 12.8931 55.0597 12.8293C54.9832 12.7529 54.894 12.7146 54.792 12.7146H54.6964V12.5234H57.3924V12.7146H57.2394C57.061 12.7401 56.9208 12.8676 56.8188 13.097C56.7168 13.3265 56.6658 13.5304 56.6658 13.7089V17.6477L60.9297 13.097C60.9807 13.046 61.0062 12.9887 61.0062 12.9249C61.0062 12.7847 60.9297 12.7146 60.7767 12.7146V12.5234H62.8608V12.7146C62.6441 12.7401 62.4211 12.8293 62.1916 12.9823C61.9622 13.1225 61.7582 13.2946 61.5798 13.4986L57.2777 18.0301C58.0807 18.0301 58.7053 18.1958 59.1515 18.5272C59.5976 18.8586 59.9737 19.3303 60.2796 19.9421L61.771 23.0014C61.8475 23.1544 61.9431 23.3392 62.0578 23.5559C62.1725 23.7726 62.3127 23.9893 62.4784 24.206C62.6441 24.4099 62.829 24.5884 63.0329 24.7414C63.2369 24.8816 63.4599 24.9517 63.7021 24.9517V25.1429H62.8035C62.4593 25.1429 62.1661 25.0919 61.9239 24.9899C61.6817 24.8752 61.4714 24.735 61.293 24.5693C61.1145 24.3908 60.9615 24.1869 60.8341 23.9574C60.7066 23.728 60.5791 23.4858 60.4517 23.2309L58.922 20.1525C58.6926 19.7063 58.3994 19.3239 58.0425 19.0052C57.6983 18.6866 57.2394 18.5272 56.6658 18.5272V23.9001C56.6658 24.002 56.6786 24.1104 56.7041 24.2251C56.7296 24.3398 56.7678 24.4546 56.8188 24.5693C56.8698 24.6713 56.9271 24.7605 56.9909 24.837C57.0674 24.9134 57.1566 24.9517 57.2586 24.9517H57.3924V25.1429H54.6964V24.9517Z" fill="#D2AF6F"/>
<path d="M76.6667 24.4734V26.8634H76.4755C76.4628 26.6977 76.4182 26.5129 76.3417 26.3089C76.2652 26.105 76.1569 25.9138 76.0166 25.7353C75.8892 25.5696 75.7362 25.4294 75.5578 25.3147C75.3793 25.2 75.1817 25.1426 74.965 25.1426H66.1505C65.9338 25.1426 65.7362 25.2 65.5578 25.3147C65.3793 25.4421 65.22 25.5887 65.0798 25.7544C64.9523 25.9329 64.8439 26.1241 64.7547 26.3281C64.6782 26.532 64.6336 26.7105 64.6209 26.8634H64.4297V24.4734H65.271C65.6789 24.4734 65.9657 24.2376 66.1314 23.7659L70.5291 12.2363L74.965 23.7086C75.0542 23.8998 75.1753 24.0782 75.3283 24.2439C75.4813 24.3969 75.6597 24.4734 75.8637 24.4734H76.6667ZM66.552 24.4734H73.9134L70.2232 14.9705L66.552 24.4734Z" fill="#D2AF6F"/>
<path d="M78.2617 24.9517H78.3573C78.4465 24.9517 78.5293 24.9198 78.6058 24.8561C78.6823 24.7796 78.746 24.6904 78.797 24.5884C78.848 24.4864 78.8863 24.3781 78.9118 24.2634C78.95 24.1486 78.9691 24.0467 78.9691 23.9574V13.7662C78.9691 13.677 78.9564 13.5687 78.9309 13.4412C78.9054 13.3137 78.8608 13.199 78.797 13.097C78.746 12.995 78.6823 12.9058 78.6058 12.8293C78.5293 12.7529 78.4465 12.7146 78.3573 12.7146H78.2617V12.5234H80.9576V12.7146H80.8238C80.6453 12.7401 80.5051 12.8803 80.4031 13.1353C80.3012 13.3775 80.2502 13.5878 80.2502 13.7662V17.8771H81.3209C81.9073 17.8771 82.4809 17.9409 83.0418 18.0683C83.6154 18.1831 84.1189 18.387 84.5523 18.6802C84.9984 18.9606 85.3553 19.3367 85.623 19.8083C85.8907 20.2672 86.0245 20.8408 86.0245 21.5291C86.0245 22.09 85.9098 22.5935 85.6804 23.0396C85.4509 23.4858 85.1386 23.8682 84.7435 24.1869C84.3483 24.4928 83.8767 24.7286 83.3286 24.8943C82.7932 25.06 82.2132 25.1429 81.5886 25.1429H78.2617V24.9517ZM80.537 24.4737C82.0156 24.4737 83.0736 24.2187 83.711 23.7089C84.3611 23.199 84.6861 22.4979 84.6861 21.6056C84.6861 20.7006 84.3611 19.9613 83.711 19.3876C83.0736 18.814 82.1304 18.5272 80.8812 18.5272H80.2502V24.4737H80.537ZM87.3056 12.5234H90.0016V12.7146H89.8486C89.7594 12.7274 89.6766 12.772 89.6001 12.8485C89.5363 12.9249 89.479 13.0142 89.428 13.1161C89.3897 13.2054 89.3579 13.3073 89.3324 13.4221C89.3069 13.524 89.2941 13.6196 89.2941 13.7089V23.9001C89.2941 24.002 89.3069 24.1104 89.3324 24.2251C89.3579 24.3398 89.3961 24.4546 89.4471 24.5693C89.4981 24.6713 89.5555 24.7605 89.6192 24.837C89.6957 24.9007 89.7785 24.9389 89.8678 24.9517H90.0016V25.1429H87.3056V24.9517H87.4012C87.5032 24.9517 87.5924 24.9198 87.6689 24.8561C87.7454 24.7796 87.8091 24.6904 87.8601 24.5884C87.9111 24.4737 87.9493 24.359 87.9748 24.2442C88.0003 24.1168 88.0131 24.002 88.0131 23.9001V13.7089C88.0131 13.6196 88.0003 13.5177 87.9748 13.403C87.9493 13.2882 87.9111 13.1799 87.8601 13.0779C87.8091 12.9759 87.7454 12.8931 87.6689 12.8293C87.5924 12.7529 87.5032 12.7146 87.4012 12.7146H87.3056V12.5234Z" fill="#D2AF6F"/>
<path d="M46.0801 32.2594H46.2028C46.5955 32.2594 46.7918 32.08 46.7918 31.7211C46.7918 31.5906 46.7672 31.4519 46.7182 31.3051L44.5096 25.359H40.2152L38.0802 31.2072C38.0312 31.3377 38.0066 31.4601 38.0066 31.5743C38.0066 31.7863 38.0639 31.9576 38.1784 32.0881C38.2929 32.2023 38.4156 32.2594 38.5465 32.2594H38.6692V32.5041H35.9453V32.2594H36.068C36.2807 32.2594 36.4852 32.1371 36.6815 31.8924C36.8942 31.6314 37.0659 31.3296 37.1968 30.987L42.8164 16.0605L48.3132 30.8402C48.4278 31.1664 48.5832 31.4845 48.7795 31.7945C48.9922 32.1044 49.2621 32.2594 49.5893 32.2594H49.712V32.5041H46.0801V32.2594ZM40.4606 24.527H44.2397L42.3501 19.4129L40.4606 24.527Z" fill="#D2AF6F"/>
<path fill-rule="evenodd" clip-rule="evenodd" d="M50.2866 0H34.9336L35.3218 1.02813C35.3247 1.0361 35.3277 1.044 35.3308 1.05183L41.1131 16.3671L41.9323 14.1849L37.1571 1.53714H48.0632L43.5072 13.6044L44.3214 15.7998L49.8895 1.05178C49.8926 1.04398 49.8956 1.03612 49.8984 1.0282L50.2866 0Z" fill="#D2AF6F"/>
<path d="M34.418 35.9473H50.8616L50.1764 34.0352H35.3315L34.418 35.9473Z" fill="#D2AF6F"/>
</g>
<defs>
<clipPath id="clip0_1032_8">
<rect width="90" height="36" fill="white"/>
</clipPath>
</defs>
</svg>
