<svg width="161" height="65" viewBox="0 0 161 65" fill="none" xmlns="http://www.w3.org/2000/svg">
<path d="M11.8005 22.6537C13.5791 22.6537 15.1753 22.9729 16.5891 23.6114C18.0029 24.2271 19.2 25.0708 20.1805 26.1425C21.1839 27.1915 21.9478 28.4228 22.4722 29.8366C23.0195 31.2276 23.2931 32.687 23.2931 34.2147C23.2931 35.925 22.9739 37.4984 22.3354 38.9349C21.7197 40.3715 20.8646 41.6029 19.7701 42.629C18.6756 43.6551 17.3986 44.4646 15.9392 45.0575C14.5026 45.6276 12.9634 45.9126 11.3216 45.9126C9.56581 45.9126 7.98101 45.5934 6.56723 44.9549C5.17625 44.3164 3.9905 43.4727 3.00998 42.4238C2.05226 41.3749 1.31117 40.1663 0.786699 38.7981C0.262233 37.43 0 36.0048 0 34.5226C0 33.0632 0.262233 31.6266 0.786699 30.2128C1.31117 28.7763 2.07506 27.4993 3.07839 26.382C4.10452 25.2646 5.34728 24.3639 6.80666 23.6798C8.26604 22.9957 9.93065 22.6537 11.8005 22.6537ZM11.7663 44.7155C13.2941 44.6471 14.628 44.305 15.7682 43.6893C16.9311 43.0509 17.9003 42.2528 18.6756 41.295C19.4509 40.3145 20.0209 39.2428 20.3858 38.0798C20.7734 36.9169 20.9672 35.7653 20.9672 34.6252C20.9672 33.371 20.7392 32.1055 20.2832 30.8285C19.8271 29.5516 19.1772 28.4 18.3335 27.3739C17.4898 26.325 16.4751 25.4812 15.2893 24.8428C14.1264 24.1815 12.8152 23.8508 11.3558 23.8508C9.94206 23.8508 8.6765 24.1701 7.55915 24.8086C6.44181 25.4242 5.48409 26.2223 4.68599 27.2029C3.91069 28.1834 3.31782 29.2779 2.90737 30.4865C2.49692 31.695 2.29169 32.8808 2.29169 34.0437C2.29169 35.2979 2.53112 36.5634 3.00998 37.8404C3.48884 39.0946 4.15012 40.2347 4.99383 41.2608C5.83754 42.287 6.82946 43.1193 7.96961 43.7578C9.13255 44.3962 10.3981 44.7155 11.7663 44.7155Z" fill="#D2AF6F"/>
<path d="M43.4553 44.3734V48.649H43.1132C43.0904 48.3525 43.0106 48.0219 42.8738 47.657C42.737 47.2922 42.5431 46.9502 42.2923 46.6309C42.0643 46.3345 41.7906 46.0836 41.4714 45.8784C41.1522 45.6732 40.7987 45.5706 40.4111 45.5706H24.6429C24.2552 45.5706 23.9018 45.6732 23.5825 45.8784C23.2633 46.1064 22.9783 46.3687 22.7274 46.6651C22.4994 46.9844 22.3056 47.3264 22.146 47.6912C22.0091 48.0561 21.9293 48.3753 21.9065 48.649H21.5645V44.3734H23.0695C23.7992 44.3734 24.3122 43.9516 24.6087 43.1079L32.4757 22.4827L40.4111 43.0053C40.5707 43.3473 40.7873 43.6665 41.061 43.963C41.3346 44.2366 41.6538 44.3734 42.0187 44.3734H43.4553ZM25.3612 44.3734H38.5298L31.9284 27.3739L25.3612 44.3734Z" fill="#D2AF6F"/>
<path d="M59.8832 45.2285H60.0542C60.2139 45.2285 60.3621 45.1715 60.4989 45.0575C60.6357 44.9207 60.7497 44.7611 60.8409 44.5787C60.9549 44.3734 61.0348 44.1682 61.0804 43.963C61.126 43.735 61.1488 43.5297 61.1488 43.3473V34.0437H50.2034V43.3473C50.2034 43.5297 50.2262 43.735 50.2718 43.963C50.3174 44.1682 50.3858 44.362 50.477 44.5445C50.5682 44.7269 50.6708 44.8865 50.7849 45.0233C50.9217 45.1601 51.0813 45.2285 51.2637 45.2285H51.4347V45.5706H46.6461V45.2285H46.8172C46.9768 45.2285 47.125 45.1715 47.2618 45.0575C47.3986 44.9207 47.5126 44.7611 47.6039 44.5787C47.7179 44.3734 47.7977 44.1682 47.8433 43.963C47.8889 43.735 47.9117 43.5297 47.9117 43.3473V25.1164C47.9117 24.9568 47.8889 24.7744 47.8433 24.5691C47.7977 24.3639 47.7293 24.1701 47.6381 23.9877C47.5469 23.8052 47.4328 23.657 47.296 23.543C47.1592 23.4062 46.9996 23.3378 46.8172 23.3378H46.6461V22.9957H51.4347V23.3378H51.2637C51.0813 23.3378 50.9217 23.4062 50.7849 23.543C50.648 23.657 50.534 23.8052 50.4428 23.9877C50.3744 24.1701 50.3174 24.3639 50.2718 24.5691C50.2262 24.7744 50.2034 24.9568 50.2034 25.1164V32.8466H61.1488V25.1164C61.1488 24.9568 61.126 24.7744 61.0804 24.5691C61.0348 24.3639 60.9664 24.1701 60.8751 23.9877C60.7839 23.8052 60.6699 23.657 60.5331 23.543C60.3963 23.4062 60.2367 23.3378 60.0542 23.3378H59.8832V22.9957H64.6718V23.3378H64.5008C64.3184 23.3378 64.1588 23.4062 64.0219 23.543C63.8851 23.657 63.7711 23.8052 63.6799 23.9877C63.6115 24.1701 63.5545 24.3639 63.5089 24.5691C63.4633 24.7744 63.4405 24.9568 63.4405 25.1164V43.3473C63.4405 43.5297 63.4633 43.735 63.5089 43.963C63.5773 44.1682 63.6571 44.362 63.7483 44.5445C63.8395 44.7269 63.9421 44.8865 64.0561 45.0233C64.193 45.1601 64.3412 45.2285 64.5008 45.2285H64.6718V45.5706H59.8832V45.2285Z" fill="#D2AF6F"/>
<path d="M97.8471 45.2285H98.0181C98.2005 45.2285 98.3601 45.1715 98.4969 45.0575C98.6338 44.9207 98.7478 44.7611 98.839 44.5787C98.9302 44.3734 98.9986 44.1682 99.0442 43.963C99.0898 43.735 99.1126 43.5297 99.1126 43.3473V33.7359C98.1321 33.7359 97.3226 34.0209 96.6841 34.591C96.0456 35.1383 95.5212 35.8224 95.1107 36.6433L92.3744 42.1502C92.1692 42.5834 91.9411 43.0053 91.6903 43.4157C91.4623 43.8262 91.1886 44.191 90.8694 44.5102C90.5501 44.8295 90.1739 45.0917 89.7406 45.2969C89.3074 45.4794 88.7715 45.5706 88.133 45.5706H86.5596V45.2285C86.9929 45.2285 87.3919 45.1031 87.7568 44.8523C88.1216 44.5787 88.4409 44.2594 88.7145 43.8946C89.0109 43.5069 89.2618 43.1193 89.467 42.7316C89.695 42.344 89.8774 42.0133 90.0143 41.7397L92.7164 36.267C93.2409 35.1725 93.9136 34.3288 94.7345 33.7359C95.5782 33.143 96.6841 32.8466 98.0523 32.8466L90.3563 24.7402C89.9687 24.3297 89.581 23.9991 89.1934 23.7482C88.8285 23.4974 88.4409 23.3606 88.0304 23.3378V22.9957H91.7587V23.3378C91.5079 23.4062 91.3824 23.5316 91.3824 23.714C91.3824 23.7824 91.4281 23.885 91.5193 24.0219L99.1126 32.1625V25.1164C99.1126 24.9568 99.0898 24.7744 99.0442 24.5691C98.9986 24.3639 98.9302 24.1701 98.839 23.9877C98.7478 23.8052 98.6338 23.657 98.4969 23.543C98.3601 23.4062 98.2005 23.3378 98.0181 23.3378H97.8471V22.9957H102.67V23.3378H102.396C102.077 23.3834 101.826 23.6114 101.644 24.0219C101.461 24.4323 101.37 24.7972 101.37 25.1164V32.1625L108.998 24.0219C109.089 23.9306 109.134 23.828 109.134 23.714C109.134 23.4632 108.998 23.3378 108.724 23.3378V22.9957H112.452V23.3378C112.065 23.3834 111.666 23.543 111.255 23.8166C110.845 24.0675 110.48 24.3753 110.161 24.7402L102.465 32.8466C103.901 32.8466 105.019 33.143 105.817 33.7359C106.615 34.3288 107.287 35.1725 107.835 36.267L110.503 41.7397C110.639 42.0133 110.811 42.344 111.016 42.7316C111.221 43.1193 111.472 43.5069 111.768 43.8946C112.065 44.2594 112.395 44.5787 112.76 44.8523C113.125 45.1031 113.524 45.2285 113.957 45.2285V45.5706H112.35C111.734 45.5706 111.21 45.4794 110.776 45.2969C110.343 45.0917 109.967 44.8409 109.648 44.5445C109.328 44.2252 109.055 43.8604 108.827 43.4499C108.599 43.0395 108.371 42.6062 108.143 42.1502L105.406 36.6433C104.996 35.8452 104.471 35.1611 103.833 34.591C103.217 34.0209 102.396 33.7359 101.37 33.7359V43.3473C101.37 43.5297 101.393 43.7235 101.439 43.9288C101.484 44.134 101.553 44.3392 101.644 44.5445C101.735 44.7269 101.838 44.8865 101.952 45.0233C102.088 45.1601 102.248 45.2285 102.43 45.2285H102.67V45.5706H97.8471V45.2285Z" fill="#D2AF6F"/>
<path d="M137.15 44.3734V48.649H136.808C136.785 48.3525 136.705 48.0219 136.568 47.657C136.431 47.2922 136.238 46.9502 135.987 46.6309C135.759 46.3345 135.485 46.0836 135.166 45.8784C134.847 45.6732 134.493 45.5706 134.106 45.5706H118.337C117.95 45.5706 117.596 45.6732 117.277 45.8784C116.958 46.1064 116.673 46.3687 116.422 46.6651C116.194 46.9844 116 47.3264 115.84 47.6912C115.704 48.0561 115.624 48.3753 115.601 48.649H115.259V44.3734H116.764C117.494 44.3734 118.007 43.9516 118.303 43.1079L126.17 22.4827L134.106 43.0053C134.265 43.3473 134.482 43.6665 134.755 43.963C135.029 44.2366 135.348 44.3734 135.713 44.3734H137.15ZM119.056 44.3734H132.224L125.623 27.3739L119.056 44.3734Z" fill="#D2AF6F"/>
<path d="M139.999 45.2285H140.17C140.329 45.2285 140.477 45.1715 140.614 45.0575C140.751 44.9207 140.865 44.7611 140.956 44.5787C141.047 44.3962 141.116 44.2024 141.161 43.9972C141.23 43.792 141.264 43.6095 141.264 43.4499V25.219C141.264 25.0594 141.241 24.8656 141.196 24.6375C141.15 24.4095 141.07 24.2043 140.956 24.0219C140.865 23.8394 140.751 23.6798 140.614 23.543C140.477 23.4062 140.329 23.3378 140.17 23.3378H139.999V22.9957H144.821V23.3378H144.582C144.263 23.3834 144.012 23.6342 143.829 24.0903C143.647 24.5235 143.556 24.8998 143.556 25.219V32.5729H145.471C146.52 32.5729 147.546 32.687 148.55 32.915C149.576 33.1202 150.476 33.4851 151.252 34.0095C152.05 34.5112 152.688 35.1839 153.167 36.0276C153.646 36.8485 153.885 37.8746 153.885 39.106C153.885 40.1093 153.68 41.01 153.27 41.8081C152.859 42.6062 152.301 43.2903 151.594 43.8604C150.887 44.4076 150.043 44.8295 149.063 45.1259C148.105 45.4224 147.067 45.5706 145.95 45.5706H139.999V45.2285ZM144.069 44.3734C146.714 44.3734 148.607 43.9174 149.747 43.0053C150.91 42.0931 151.491 40.839 151.491 39.2428C151.491 37.6238 150.91 36.3012 149.747 35.2751C148.607 34.249 146.919 33.7359 144.685 33.7359H143.556V44.3734H144.069ZM156.177 22.9957H161V23.3378H160.726C160.567 23.3606 160.419 23.4404 160.282 23.5772C160.168 23.714 160.065 23.8736 159.974 24.0561C159.905 24.2157 159.848 24.3981 159.803 24.6033C159.757 24.7858 159.734 24.9568 159.734 25.1164V43.3473C159.734 43.5297 159.757 43.7235 159.803 43.9288C159.848 44.134 159.917 44.3392 160.008 44.5445C160.099 44.7269 160.202 44.8865 160.316 45.0233C160.453 45.1373 160.601 45.2057 160.761 45.2285H161V45.5706H156.177V45.2285H156.348C156.531 45.2285 156.69 45.1715 156.827 45.0575C156.964 44.9207 157.078 44.7611 157.169 44.5787C157.26 44.3734 157.329 44.1682 157.374 43.963C157.42 43.735 157.443 43.5297 157.443 43.3473V25.1164C157.443 24.9568 157.42 24.7744 157.374 24.5691C157.329 24.3639 157.26 24.1701 157.169 23.9877C157.078 23.8052 156.964 23.657 156.827 23.543C156.69 23.4062 156.531 23.3378 156.348 23.3378H156.177V22.9957Z" fill="#D2AF6F"/>
<path d="M99.4694 8.01407H99.5207C99.6848 8.01407 99.7669 7.93882 99.7669 7.78832C99.7669 7.7336 99.7567 7.67545 99.7362 7.61388L98.8126 5.12039H97.0169L96.1242 7.57284C96.1037 7.62756 96.0934 7.67887 96.0934 7.72676C96.0934 7.81569 96.1173 7.88752 96.1652 7.94224C96.2131 7.99013 96.2644 8.01407 96.3191 8.01407H96.3704V8.11668H95.2314V8.01407H95.2828C95.3717 8.01407 95.4572 7.96277 95.5393 7.86015C95.6282 7.7507 95.7 7.62414 95.7548 7.48048L98.1046 1.22109L100.403 7.41892C100.451 7.55573 100.516 7.68913 100.598 7.81911C100.687 7.94908 100.8 8.01407 100.937 8.01407H100.988V8.11668H99.4694V8.01407ZM97.1195 4.7715H98.6998L97.9096 2.62689L97.1195 4.7715Z" fill="#D2AF6F"/>
<path d="M105.696 8.01407H105.748C105.796 8.01407 105.84 7.99697 105.881 7.96277C105.922 7.92172 105.956 7.87383 105.984 7.81911C106.018 7.75754 106.042 7.69597 106.056 7.6344C106.069 7.566 106.076 7.50443 106.076 7.4497V4.65863H102.792V7.4497C102.792 7.50443 102.799 7.566 102.813 7.6344C102.827 7.69597 102.847 7.75412 102.875 7.80885C102.902 7.86357 102.933 7.91146 102.967 7.9525C103.008 7.99355 103.056 8.01407 103.111 8.01407H103.162V8.11668H101.725V8.01407H101.777C101.824 8.01407 101.869 7.99697 101.91 7.96277C101.951 7.92172 101.985 7.87383 102.013 7.81911C102.047 7.75754 102.071 7.69597 102.084 7.6344C102.098 7.566 102.105 7.50443 102.105 7.4497V1.98043C102.105 1.93254 102.098 1.87782 102.084 1.81625C102.071 1.75468 102.05 1.69653 102.023 1.64181C101.995 1.58708 101.961 1.54261 101.92 1.50841C101.879 1.46737 101.831 1.44684 101.777 1.44684H101.725V1.34423H103.162V1.44684H103.111C103.056 1.44684 103.008 1.46737 102.967 1.50841C102.926 1.54261 102.892 1.58708 102.864 1.64181C102.844 1.69653 102.827 1.75468 102.813 1.81625C102.799 1.87782 102.792 1.93254 102.792 1.98043V4.29948H106.076V1.98043C106.076 1.93254 106.069 1.87782 106.056 1.81625C106.042 1.75468 106.021 1.69653 105.994 1.64181C105.967 1.58708 105.932 1.54261 105.891 1.50841C105.85 1.46737 105.802 1.44684 105.748 1.44684H105.696V1.34423H107.133V1.44684H107.082C107.027 1.44684 106.979 1.46737 106.938 1.50841C106.897 1.54261 106.863 1.58708 106.835 1.64181C106.815 1.69653 106.798 1.75468 106.784 1.81625C106.77 1.87782 106.764 1.93254 106.764 1.98043V7.4497C106.764 7.50443 106.77 7.566 106.784 7.6344C106.805 7.69597 106.829 7.75412 106.856 7.80885C106.883 7.86357 106.914 7.91146 106.948 7.9525C106.989 7.99355 107.034 8.01407 107.082 8.01407H107.133V8.11668H105.696V8.01407Z" fill="#D2AF6F"/>
<path d="M110.581 8.01407H110.633V8.11668H109.176V8.01407H109.227C109.282 8.01407 109.33 7.99355 109.371 7.9525C109.412 7.91146 109.446 7.86357 109.473 7.80885C109.507 7.75412 109.531 7.69597 109.545 7.6344C109.559 7.566 109.566 7.50443 109.566 7.4497V1.7239H108.375C108.266 1.7239 108.17 1.74784 108.088 1.79573C108.006 1.84361 107.937 1.90518 107.883 1.98043C107.828 2.04884 107.787 2.12751 107.76 2.21644C107.732 2.29853 107.719 2.38062 107.719 2.46271H107.616V1.34423H112.223V2.46271H112.121C112.121 2.38062 112.107 2.29853 112.08 2.21644C112.052 2.12751 112.011 2.04884 111.956 1.98043C111.902 1.90518 111.833 1.84361 111.751 1.79573C111.669 1.74784 111.573 1.7239 111.464 1.7239H110.253V7.4497C110.253 7.50443 110.26 7.566 110.274 7.6344C110.287 7.69597 110.308 7.75412 110.335 7.80885C110.369 7.86357 110.404 7.91146 110.438 7.9525C110.479 7.99355 110.527 8.01407 110.581 8.01407Z" fill="#D2AF6F"/>
<path d="M116.869 8.01407H116.921C116.975 8.01407 117.023 7.99697 117.064 7.96277C117.105 7.92172 117.14 7.87383 117.167 7.81911C117.201 7.75754 117.225 7.69597 117.239 7.6344C117.252 7.566 117.259 7.50443 117.259 7.4497V2.75003L113.852 7.35735V7.4497C113.852 7.50443 113.859 7.566 113.873 7.6344C113.894 7.69597 113.917 7.75412 113.945 7.80885C113.972 7.86357 114.006 7.91146 114.047 7.9525C114.089 7.99355 114.136 8.01407 114.191 8.01407H114.242V8.11668H112.785V8.01407H112.837C112.891 8.01407 112.939 7.99697 112.98 7.96277C113.021 7.92172 113.056 7.87383 113.083 7.81911C113.117 7.75754 113.141 7.69597 113.155 7.6344C113.168 7.566 113.175 7.50443 113.175 7.4497V1.98043C113.175 1.93254 113.168 1.87782 113.155 1.81625C113.141 1.75468 113.117 1.69653 113.083 1.64181C113.056 1.58708 113.021 1.54261 112.98 1.50841C112.939 1.46737 112.891 1.44684 112.837 1.44684H112.785V1.34423H114.242V1.44684H114.16C114.112 1.45368 114.068 1.47763 114.027 1.51867C113.993 1.55972 113.962 1.6076 113.935 1.66233C113.907 1.71022 113.887 1.76494 113.873 1.82651C113.859 1.88124 113.852 1.93254 113.852 1.98043V6.72115L117.259 2.11383V1.98043C117.259 1.93254 117.252 1.87782 117.239 1.81625C117.225 1.75468 117.201 1.69653 117.167 1.64181C117.14 1.58708 117.105 1.54261 117.064 1.50841C117.023 1.46737 116.975 1.44684 116.921 1.44684H116.869V1.34423H118.326V1.44684H118.275C118.22 1.44684 118.172 1.46737 118.131 1.50841C118.09 1.54261 118.056 1.58708 118.029 1.64181C118.001 1.69653 117.978 1.75468 117.957 1.81625C117.943 1.87782 117.936 1.93254 117.936 1.98043V7.4497C117.936 7.50443 117.943 7.56257 117.957 7.62414C117.978 7.68571 118.001 7.74728 118.029 7.80885C118.056 7.86357 118.09 7.91146 118.131 7.9525C118.172 7.99355 118.22 8.01407 118.275 8.01407H118.326V8.11668H116.869V8.01407Z" fill="#D2AF6F"/>
<path d="M119.299 8.01407H119.35C119.405 8.01407 119.453 7.99355 119.494 7.9525C119.535 7.91146 119.569 7.86357 119.596 7.80885C119.631 7.75412 119.655 7.69597 119.668 7.6344C119.682 7.566 119.689 7.50443 119.689 7.4497V1.98043C119.689 1.93254 119.682 1.87782 119.668 1.81625C119.655 1.75468 119.631 1.69653 119.596 1.64181C119.569 1.58708 119.535 1.54261 119.494 1.50841C119.453 1.46737 119.408 1.44684 119.36 1.44684H119.309V1.34423H120.766V1.44684H120.715C120.66 1.44684 120.612 1.46737 120.571 1.50841C120.53 1.54261 120.493 1.58708 120.458 1.64181C120.431 1.69653 120.407 1.75468 120.387 1.81625C120.373 1.87782 120.366 1.93254 120.366 1.98043V4.10452L122.747 1.73416C122.801 1.67943 122.829 1.61444 122.829 1.53919C122.829 1.47763 122.801 1.44684 122.747 1.44684V1.34423H123.855V1.44684C123.718 1.45368 123.595 1.49473 123.485 1.56998C123.383 1.64523 123.27 1.74442 123.147 1.86756L120.715 4.29948C121.16 4.31316 121.519 4.40894 121.792 4.5868C122.066 4.76466 122.281 5.01093 122.439 5.32561L123.249 6.96742C123.297 7.07003 123.359 7.18291 123.434 7.30604C123.516 7.42234 123.605 7.53521 123.701 7.64466C123.804 7.74728 123.916 7.83621 124.04 7.91146C124.163 7.97987 124.293 8.01407 124.429 8.01407V8.11668H123.916C123.718 8.11668 123.547 8.08932 123.403 8.03459C123.26 7.97303 123.133 7.89436 123.024 7.79858C122.921 7.69597 122.829 7.5831 122.747 7.45996C122.671 7.33683 122.603 7.21369 122.541 7.09056L121.71 5.43849C121.58 5.18537 121.399 4.99383 121.166 4.86385C120.941 4.72704 120.674 4.65179 120.366 4.63811V7.4497C120.366 7.50443 120.373 7.56257 120.387 7.62414C120.4 7.68571 120.421 7.74728 120.448 7.80885C120.475 7.86357 120.51 7.91146 120.551 7.9525C120.592 7.98671 120.636 8.00723 120.684 8.01407H120.756V8.11668H119.299V8.01407Z" fill="#D2AF6F"/>
<path d="M125.041 8.01407H125.092C125.14 8.01407 125.184 7.99355 125.225 7.9525C125.267 7.91146 125.301 7.86357 125.328 7.80885C125.362 7.75412 125.386 7.69597 125.4 7.6344C125.414 7.566 125.42 7.50443 125.42 7.4497V1.99069C125.42 1.94281 125.414 1.88808 125.4 1.82651C125.386 1.76494 125.362 1.7068 125.328 1.65207C125.301 1.5905 125.263 1.54261 125.215 1.50841C125.174 1.46737 125.126 1.44684 125.072 1.44684H125.02V1.34423H126.703C127.339 1.34423 127.835 1.48447 128.191 1.76494C128.554 2.04542 128.735 2.41825 128.735 2.88342C128.735 3.08181 128.701 3.25967 128.632 3.41701C128.564 3.57435 128.475 3.71459 128.365 3.83772C128.263 3.96086 128.15 4.06689 128.027 4.15583C127.904 4.23792 127.787 4.30632 127.678 4.36105C127.965 4.41578 128.205 4.50813 128.396 4.63811C128.588 4.76808 128.742 4.91858 128.858 5.0896C128.981 5.25378 129.067 5.43165 129.114 5.62319C129.162 5.81473 129.186 6.00286 129.186 6.18756C129.186 6.54329 129.121 6.84428 128.991 7.09056C128.861 7.32999 128.687 7.52837 128.468 7.68571C128.256 7.83621 128.01 7.94566 127.729 8.01407C127.456 8.08248 127.172 8.11668 126.878 8.11668H125.041V8.01407ZM128.489 6.24913C128.434 5.72238 128.256 5.31535 127.955 5.02803C127.654 4.74072 127.23 4.59706 126.683 4.59706H126.108V7.77806H126.703C127.257 7.77806 127.692 7.65493 128.006 7.40866C128.328 7.15554 128.489 6.80666 128.489 6.362V6.24913ZM128.068 2.97578C128.047 2.57901 127.907 2.26433 127.647 2.03174C127.394 1.79915 127.052 1.68285 126.621 1.68285H126.108V4.2687H126.642C126.929 4.2687 127.161 4.23107 127.339 4.15583C127.524 4.08058 127.671 3.9848 127.781 3.86851C127.89 3.74537 127.965 3.61198 128.006 3.46832C128.047 3.32466 128.068 3.18442 128.068 3.0476V2.97578Z" fill="#D2AF6F"/>
<path d="M133.981 8.01407H134.032C134.196 8.01407 134.279 7.93882 134.279 7.78832C134.279 7.7336 134.268 7.67545 134.248 7.61388L133.324 5.12039H131.529L130.636 7.57284C130.615 7.62756 130.605 7.67887 130.605 7.72676C130.605 7.81569 130.629 7.88752 130.677 7.94224C130.725 7.99013 130.776 8.01407 130.831 8.01407H130.882V8.11668H129.743V8.01407H129.794C129.883 8.01407 129.969 7.96277 130.051 7.86015C130.14 7.7507 130.212 7.62414 130.266 7.48048L132.616 1.22109L134.915 7.41892C134.963 7.55573 135.028 7.68913 135.11 7.81911C135.199 7.94908 135.312 8.01407 135.448 8.01407H135.5V8.11668H133.981V8.01407ZM131.631 4.7715H133.211L132.421 2.62689L131.631 4.7715Z" fill="#D2AF6F"/>
<path d="M136.103 1.34423H137.561C138.32 1.34423 138.895 1.49131 139.284 1.78547C139.681 2.07278 139.88 2.48323 139.88 3.01682C139.88 3.30414 139.811 3.56067 139.674 3.78642C139.538 4.01217 139.356 4.20371 139.131 4.36105C138.912 4.51155 138.662 4.62784 138.381 4.70993C138.108 4.79203 137.834 4.83307 137.561 4.83307H137.171V7.4497C137.171 7.50443 137.177 7.566 137.191 7.6344C137.205 7.69597 137.225 7.75412 137.253 7.80885C137.287 7.86357 137.321 7.91146 137.355 7.9525C137.396 7.99355 137.444 8.01407 137.499 8.01407H137.55V8.11668H136.103V8.01407H136.155C136.203 8.01407 136.247 7.99355 136.288 7.9525C136.329 7.91146 136.363 7.86357 136.391 7.80885C136.418 7.75412 136.439 7.69597 136.452 7.6344C136.466 7.566 136.473 7.50443 136.473 7.4497V1.98043C136.473 1.88466 136.446 1.7752 136.391 1.65207C136.336 1.52893 136.257 1.46052 136.155 1.44684H136.103V1.34423ZM137.171 1.70338V4.47393H137.478C137.752 4.47393 137.995 4.4363 138.207 4.36105C138.426 4.2858 138.607 4.18661 138.751 4.06347C138.895 3.94034 139.004 3.8001 139.079 3.64276C139.154 3.48542 139.192 3.32466 139.192 3.16048C139.192 2.96209 139.158 2.77739 139.09 2.60637C139.028 2.42851 138.922 2.27459 138.771 2.14461C138.628 2.00779 138.436 1.90176 138.197 1.82651C137.957 1.74442 137.663 1.70338 137.314 1.70338H137.171Z" fill="#D2AF6F"/>
<path d="M144.848 8.01407H144.899C144.947 8.01407 144.991 7.99697 145.032 7.96277C145.073 7.92172 145.108 7.87383 145.135 7.81911C145.169 7.75754 145.193 7.69597 145.207 7.6344C145.22 7.566 145.227 7.50443 145.227 7.4497V4.65863H141.944V7.4497C141.944 7.50443 141.951 7.566 141.964 7.6344C141.978 7.69597 141.998 7.75412 142.026 7.80885C142.053 7.86357 142.084 7.91146 142.118 7.9525C142.159 7.99355 142.207 8.01407 142.262 8.01407H142.313V8.11668H140.877V8.01407H140.928C140.976 8.01407 141.02 7.99697 141.061 7.96277C141.102 7.92172 141.136 7.87383 141.164 7.81911C141.198 7.75754 141.222 7.69597 141.236 7.6344C141.249 7.566 141.256 7.50443 141.256 7.4497V1.98043C141.256 1.93254 141.249 1.87782 141.236 1.81625C141.222 1.75468 141.201 1.69653 141.174 1.64181C141.147 1.58708 141.113 1.54261 141.071 1.50841C141.03 1.46737 140.983 1.44684 140.928 1.44684H140.877V1.34423H142.313V1.44684H142.262C142.207 1.44684 142.159 1.46737 142.118 1.50841C142.077 1.54261 142.043 1.58708 142.015 1.64181C141.995 1.69653 141.978 1.75468 141.964 1.81625C141.951 1.87782 141.944 1.93254 141.944 1.98043V4.29948H145.227V1.98043C145.227 1.93254 145.22 1.87782 145.207 1.81625C145.193 1.75468 145.173 1.69653 145.145 1.64181C145.118 1.58708 145.084 1.54261 145.043 1.50841C145.002 1.46737 144.954 1.44684 144.899 1.44684H144.848V1.34423H146.284V1.44684H146.233C146.178 1.44684 146.13 1.46737 146.089 1.50841C146.048 1.54261 146.014 1.58708 145.987 1.64181C145.966 1.69653 145.949 1.75468 145.935 1.81625C145.922 1.87782 145.915 1.93254 145.915 1.98043V7.4497C145.915 7.50443 145.922 7.566 145.935 7.6344C145.956 7.69597 145.98 7.75412 146.007 7.80885C146.035 7.86357 146.065 7.91146 146.099 7.9525C146.141 7.99355 146.185 8.01407 146.233 8.01407H146.284V8.11668H144.848V8.01407Z" fill="#D2AF6F"/>
<path d="M147.157 8.01407H147.208C147.256 8.01407 147.301 7.99697 147.342 7.96277C147.383 7.92172 147.417 7.87383 147.444 7.81911C147.472 7.76438 147.492 7.70623 147.506 7.64466C147.527 7.5831 147.537 7.52837 147.537 7.48048V2.01121C147.537 1.96333 147.53 1.90518 147.516 1.83677C147.503 1.76836 147.479 1.7068 147.444 1.65207C147.417 1.59734 147.383 1.54946 147.342 1.50841C147.301 1.46737 147.256 1.44684 147.208 1.44684H147.157V1.34423H148.604V1.44684H148.532C148.436 1.46052 148.361 1.53577 148.306 1.67259C148.252 1.80257 148.224 1.91544 148.224 2.01121V4.21739H148.799C149.114 4.21739 149.421 4.2516 149.722 4.32001C150.03 4.38157 150.301 4.49103 150.533 4.64837C150.773 4.79887 150.964 5.00067 151.108 5.25378C151.251 5.50005 151.323 5.80789 151.323 6.1773C151.323 6.4783 151.262 6.74851 151.139 6.98794C151.015 7.22737 150.848 7.4326 150.636 7.60362C150.424 7.7678 150.171 7.89436 149.876 7.98329C149.589 8.07222 149.278 8.11668 148.943 8.11668H147.157V8.01407ZM148.378 7.75754C149.172 7.75754 149.74 7.62072 150.082 7.34709C150.43 7.07345 150.605 6.69721 150.605 6.21835C150.605 5.73264 150.43 5.33587 150.082 5.02803C149.74 4.7202 149.233 4.56628 148.563 4.56628H148.224V7.75754H148.378ZM152.011 1.34423H153.458V1.44684H153.375C153.328 1.45368 153.283 1.47763 153.242 1.51867C153.208 1.55972 153.177 1.6076 153.15 1.66233C153.129 1.71022 153.112 1.76494 153.098 1.82651C153.085 1.88124 153.078 1.93254 153.078 1.98043V7.4497C153.078 7.50443 153.085 7.56257 153.098 7.62414C153.112 7.68571 153.133 7.74728 153.16 7.80885C153.187 7.86357 153.218 7.91146 153.252 7.9525C153.293 7.98671 153.338 8.00723 153.386 8.01407H153.458V8.11668H152.011V8.01407H152.062C152.117 8.01407 152.165 7.99697 152.206 7.96277C152.247 7.92172 152.281 7.87383 152.308 7.81911C152.336 7.75754 152.356 7.69597 152.37 7.6344C152.384 7.566 152.39 7.50443 152.39 7.4497V1.98043C152.39 1.93254 152.384 1.87782 152.37 1.81625C152.356 1.75468 152.336 1.69653 152.308 1.64181C152.281 1.58708 152.247 1.54261 152.206 1.50841C152.165 1.46737 152.117 1.44684 152.062 1.44684H152.011V1.34423Z" fill="#D2AF6F"/>
<path d="M158.351 0C158.351 0.116294 158.324 0.236009 158.269 0.359145C158.215 0.482281 158.136 0.598575 158.033 0.708029C157.937 0.817483 157.818 0.906414 157.674 0.974823C157.537 1.04323 157.383 1.07744 157.212 1.07744C157.048 1.07744 156.894 1.04665 156.751 0.985084C156.614 0.916675 156.494 0.831165 156.391 0.728552C156.289 0.625939 156.207 0.509644 156.145 0.379668C156.084 0.249691 156.053 0.123135 156.053 0H156.114C156.121 0.0410451 156.142 0.0991923 156.176 0.174442C156.217 0.249691 156.279 0.324941 156.361 0.40019C156.443 0.47544 156.552 0.540428 156.689 0.595155C156.826 0.649882 156.997 0.677245 157.202 0.677245C157.414 0.677245 157.585 0.649882 157.715 0.595155C157.852 0.540428 157.961 0.47544 158.043 0.40019C158.126 0.324941 158.184 0.249691 158.218 0.174442C158.252 0.0991923 158.276 0.0410451 158.29 0H158.351ZM158.526 8.01407H158.577C158.632 8.01407 158.68 7.99697 158.721 7.96277C158.762 7.92172 158.796 7.87383 158.823 7.81911C158.858 7.75754 158.881 7.69597 158.895 7.6344C158.909 7.566 158.916 7.50443 158.916 7.4497V2.75003L155.509 7.35735V7.4497C155.509 7.50443 155.516 7.566 155.529 7.6344C155.55 7.69597 155.574 7.75412 155.601 7.80885C155.629 7.86357 155.663 7.91146 155.704 7.9525C155.745 7.99355 155.793 8.01407 155.848 8.01407H155.899V8.11668H154.442V8.01407H154.493C154.548 8.01407 154.596 7.99697 154.637 7.96277C154.678 7.92172 154.712 7.87383 154.739 7.81911C154.774 7.75754 154.797 7.69597 154.811 7.6344C154.825 7.566 154.832 7.50443 154.832 7.4497V1.98043C154.832 1.93254 154.825 1.87782 154.811 1.81625C154.797 1.75468 154.774 1.69653 154.739 1.64181C154.712 1.58708 154.678 1.54261 154.637 1.50841C154.596 1.46737 154.548 1.44684 154.493 1.44684H154.442V1.34423H155.899V1.44684H155.817C155.769 1.45368 155.724 1.47763 155.683 1.51867C155.649 1.55972 155.618 1.6076 155.591 1.66233C155.564 1.71022 155.543 1.76494 155.529 1.82651C155.516 1.88124 155.509 1.93254 155.509 1.98043V6.72115L158.916 2.11383V1.98043C158.916 1.93254 158.909 1.87782 158.895 1.81625C158.881 1.75468 158.858 1.69653 158.823 1.64181C158.796 1.58708 158.762 1.54261 158.721 1.50841C158.68 1.46737 158.632 1.44684 158.577 1.44684H158.526V1.34423H159.983V1.44684H159.932C159.877 1.44684 159.829 1.46737 159.788 1.50841C159.747 1.54261 159.713 1.58708 159.685 1.64181C159.658 1.69653 159.634 1.75468 159.613 1.81625C159.6 1.87782 159.593 1.93254 159.593 1.98043V7.4497C159.593 7.50443 159.6 7.56257 159.613 7.62414C159.634 7.68571 159.658 7.74728 159.685 7.80885C159.713 7.86357 159.747 7.91146 159.788 7.9525C159.829 7.99355 159.877 8.01407 159.932 8.01407H159.983V8.11668H158.526V8.01407Z" fill="#D2AF6F"/>
<path d="M101.07 19.6435H101.121C101.169 19.6435 101.214 19.623 101.255 19.582C101.296 19.5409 101.33 19.493 101.357 19.4383C101.392 19.3836 101.416 19.3254 101.429 19.2639C101.443 19.1955 101.45 19.1339 101.45 19.0792V13.6817L98.8024 19.859L96.2884 13.9998V19.0792C96.2884 19.1339 96.2952 19.1955 96.3089 19.2639C96.3226 19.3254 96.3431 19.3836 96.3704 19.4383C96.4047 19.493 96.4423 19.5409 96.4833 19.582C96.5244 19.623 96.5723 19.6435 96.627 19.6435H96.6783V19.7462H95.5598V19.6435H95.6111C95.659 19.6435 95.7035 19.623 95.7445 19.582C95.7856 19.5409 95.8198 19.493 95.8471 19.4383C95.8745 19.3836 95.895 19.3254 95.9087 19.2639C95.9224 19.1955 95.9292 19.1339 95.9292 19.0792V13.6099C95.9292 13.562 95.9224 13.5073 95.9087 13.4457C95.895 13.3841 95.8745 13.326 95.8471 13.2713C95.8198 13.2165 95.7856 13.1721 95.7445 13.1379C95.7035 13.0968 95.659 13.0763 95.6111 13.0763H95.5598V12.9737H96.6065L98.9871 18.5866L101.368 12.9737H102.527V13.0763H102.476C102.421 13.0763 102.373 13.0968 102.332 13.1379C102.291 13.1721 102.254 13.2165 102.219 13.2713C102.192 13.326 102.172 13.3841 102.158 13.4457C102.144 13.5073 102.137 13.562 102.137 13.6099V19.0792C102.137 19.1339 102.144 19.1955 102.158 19.2639C102.172 19.3254 102.192 19.3836 102.219 19.4383C102.254 19.493 102.291 19.5409 102.332 19.582C102.373 19.623 102.421 19.6435 102.476 19.6435H102.527V19.7462H101.07V19.6435Z" fill="#D2AF6F"/>
<path d="M107.446 19.6435H107.497C107.661 19.6435 107.743 19.5683 107.743 19.4178C107.743 19.3631 107.733 19.3049 107.713 19.2433L106.789 16.7499H104.993L104.101 19.2023C104.08 19.257 104.07 19.3083 104.07 19.3562C104.07 19.4452 104.094 19.517 104.142 19.5717C104.19 19.6196 104.241 19.6435 104.296 19.6435H104.347V19.7462H103.208V19.6435H103.259C103.348 19.6435 103.434 19.5922 103.516 19.4896C103.605 19.3802 103.677 19.2536 103.731 19.11L106.081 12.8506L108.38 19.0484C108.428 19.1852 108.493 19.3186 108.575 19.4486C108.664 19.5786 108.776 19.6435 108.913 19.6435H108.965V19.7462H107.446V19.6435ZM105.096 16.401H106.676L105.886 14.2564L105.096 16.401Z" fill="#D2AF6F"/>
<path d="M111.005 19.6435H111.056V19.7462H109.579V19.6435H109.63C109.685 19.6435 109.733 19.6264 109.774 19.5922C109.815 19.5512 109.849 19.5033 109.876 19.4486C109.91 19.3938 109.934 19.3357 109.948 19.2741C109.962 19.2126 109.969 19.1544 109.969 19.0997V13.6099C109.969 13.562 109.962 13.5073 109.948 13.4457C109.934 13.3841 109.91 13.326 109.876 13.2713C109.849 13.2165 109.815 13.1721 109.774 13.1379C109.733 13.0968 109.685 13.0763 109.63 13.0763H109.579V12.9737H113.529V14.0614H113.427C113.427 13.8151 113.372 13.6338 113.262 13.5175C113.16 13.3944 112.996 13.3328 112.77 13.3328H110.666V19.0997C110.666 19.1544 110.673 19.2126 110.687 19.2741C110.701 19.3357 110.721 19.3938 110.748 19.4486C110.783 19.5033 110.82 19.5512 110.861 19.5922C110.902 19.6264 110.95 19.6435 111.005 19.6435Z" fill="#D2AF6F"/>
<path d="M116.555 19.6435H116.606C116.77 19.6435 116.852 19.5683 116.852 19.4178C116.852 19.3631 116.842 19.3049 116.822 19.2433L115.898 16.7499H114.102L113.21 19.2023C113.189 19.257 113.179 19.3083 113.179 19.3562C113.179 19.4452 113.203 19.517 113.251 19.5717C113.299 19.6196 113.35 19.6435 113.405 19.6435H113.456V19.7462H112.317V19.6435H112.368C112.457 19.6435 112.543 19.5922 112.625 19.4896C112.714 19.3802 112.786 19.2536 112.84 19.11L115.19 12.8506L117.489 19.0484C117.536 19.1852 117.601 19.3186 117.684 19.4486C117.772 19.5786 117.885 19.6435 118.022 19.6435H118.073V19.7462H116.555V19.6435ZM114.205 16.401H115.785L114.995 14.2564L114.205 16.401Z" fill="#D2AF6F"/>
<path d="M118.605 13.1584H118.698C118.753 13.1584 118.814 13.1516 118.883 13.1379C118.951 13.1174 119.023 13.0934 119.098 13.0661C119.228 13.025 119.382 12.984 119.56 12.9429C119.738 12.895 119.953 12.8711 120.206 12.8711C120.528 12.8711 120.812 12.9156 121.058 13.0045C121.311 13.0934 121.523 13.2131 121.694 13.3636C121.872 13.5141 122.005 13.6886 122.094 13.887C122.183 14.0853 122.228 14.2974 122.228 14.5232C122.228 14.8447 122.135 15.132 121.951 15.3851C121.773 15.6314 121.52 15.84 121.191 16.011C121.657 16.2163 121.995 16.4796 122.207 16.8012C122.426 17.1158 122.536 17.4579 122.536 17.8273C122.536 18.0941 122.477 18.3506 122.361 18.5969C122.252 18.8432 122.091 19.0586 121.879 19.2433C121.667 19.4281 121.407 19.5751 121.099 19.6846C120.791 19.794 120.439 19.8488 120.042 19.8488C119.755 19.8488 119.522 19.8248 119.344 19.7769C119.166 19.7291 119.013 19.6777 118.883 19.623C118.8 19.5888 118.722 19.5615 118.647 19.5409C118.578 19.5204 118.506 19.5101 118.431 19.5101H118.339V18.3711H118.441C118.503 18.5627 118.585 18.7303 118.688 18.8739C118.797 19.0108 118.92 19.1236 119.057 19.2126C119.194 19.3015 119.341 19.3699 119.498 19.4178C119.656 19.4588 119.816 19.4794 119.98 19.4794C120.193 19.4794 120.401 19.4452 120.606 19.3767C120.818 19.3015 121.003 19.1989 121.161 19.0689C121.325 18.9389 121.455 18.7816 121.55 18.5969C121.653 18.4053 121.704 18.1933 121.704 17.9607C121.704 17.7281 121.66 17.5058 121.571 17.2937C121.482 17.0748 121.356 16.8867 121.191 16.7293C121.034 16.572 120.846 16.4454 120.627 16.3497C120.408 16.2539 120.169 16.206 119.909 16.206H119.539V15.8571H119.96C120.165 15.8571 120.36 15.8298 120.545 15.775C120.73 15.7135 120.89 15.628 121.027 15.5185C121.171 15.4022 121.284 15.2654 121.366 15.108C121.448 14.9507 121.489 14.7694 121.489 14.5642C121.489 14.359 121.448 14.1743 121.366 14.0101C121.284 13.8459 121.174 13.7091 121.037 13.5996C120.907 13.4833 120.757 13.3944 120.586 13.3328C120.422 13.2713 120.251 13.2405 120.073 13.2405C119.929 13.2405 119.789 13.261 119.652 13.3021C119.515 13.3431 119.385 13.4081 119.262 13.497C119.139 13.586 119.03 13.6954 118.934 13.8254C118.838 13.9554 118.763 14.1127 118.708 14.2974H118.605V13.1584Z" fill="#D2AF6F"/>
<path d="M127.521 19.6435H127.573C127.627 19.6435 127.675 19.6264 127.716 19.5922C127.757 19.5512 127.792 19.5033 127.819 19.4486C127.853 19.387 127.877 19.3254 127.891 19.2639C127.905 19.1955 127.911 19.1339 127.911 19.0792V14.3795L124.505 18.9868V19.0792C124.505 19.1339 124.511 19.1955 124.525 19.2639C124.546 19.3254 124.57 19.3836 124.597 19.4383C124.624 19.493 124.659 19.5409 124.7 19.582C124.741 19.623 124.788 19.6435 124.843 19.6435H124.895V19.7462H123.437V19.6435H123.489C123.543 19.6435 123.591 19.6264 123.632 19.5922C123.673 19.5512 123.708 19.5033 123.735 19.4486C123.769 19.387 123.793 19.3254 123.807 19.2639C123.821 19.1955 123.827 19.1339 123.827 19.0792V13.6099C123.827 13.562 123.821 13.5073 123.807 13.4457C123.793 13.3841 123.769 13.326 123.735 13.2713C123.708 13.2165 123.673 13.1721 123.632 13.1379C123.591 13.0968 123.543 13.0763 123.489 13.0763H123.437V12.9737H124.895V13.0763H124.812C124.765 13.0832 124.72 13.1071 124.679 13.1481C124.645 13.1892 124.614 13.2371 124.587 13.2918C124.559 13.3397 124.539 13.3944 124.525 13.456C124.511 13.5107 124.505 13.562 124.505 13.6099V18.3506L127.911 13.7433V13.6099C127.911 13.562 127.905 13.5073 127.891 13.4457C127.877 13.3841 127.853 13.326 127.819 13.2713C127.792 13.2165 127.757 13.1721 127.716 13.1379C127.675 13.0968 127.627 13.0763 127.573 13.0763H127.521V12.9737H128.979V13.0763H128.927C128.872 13.0763 128.825 13.0968 128.784 13.1379C128.743 13.1721 128.708 13.2165 128.681 13.2713C128.654 13.326 128.63 13.3841 128.609 13.4457C128.595 13.5073 128.589 13.562 128.589 13.6099V19.0792C128.589 19.1339 128.595 19.192 128.609 19.2536C128.63 19.3152 128.654 19.3767 128.681 19.4383C128.708 19.493 128.743 19.5409 128.784 19.582C128.825 19.623 128.872 19.6435 128.927 19.6435H128.979V19.7462H127.521V19.6435Z" fill="#D2AF6F"/>
<path d="M134.045 19.6435H134.097C134.144 19.6435 134.189 19.6264 134.23 19.5922C134.271 19.5512 134.305 19.5033 134.333 19.4486C134.367 19.387 134.391 19.3254 134.404 19.2639C134.418 19.1955 134.425 19.1339 134.425 19.0792V16.2881H131.141V19.0792C131.141 19.1339 131.148 19.1955 131.162 19.2639C131.175 19.3254 131.196 19.3836 131.223 19.4383C131.251 19.493 131.281 19.5409 131.316 19.582C131.357 19.623 131.405 19.6435 131.459 19.6435H131.511V19.7462H130.074V19.6435H130.125C130.173 19.6435 130.218 19.6264 130.259 19.5922C130.3 19.5512 130.334 19.5033 130.361 19.4486C130.396 19.387 130.42 19.3254 130.433 19.2639C130.447 19.1955 130.454 19.1339 130.454 19.0792V13.6099C130.454 13.562 130.447 13.5073 130.433 13.4457C130.42 13.3841 130.399 13.326 130.372 13.2713C130.344 13.2165 130.31 13.1721 130.269 13.1379C130.228 13.0968 130.18 13.0763 130.125 13.0763H130.074V12.9737H131.511V13.0763H131.459C131.405 13.0763 131.357 13.0968 131.316 13.1379C131.275 13.1721 131.24 13.2165 131.213 13.2713C131.193 13.326 131.175 13.3841 131.162 13.4457C131.148 13.5073 131.141 13.562 131.141 13.6099V15.929H134.425V13.6099C134.425 13.562 134.418 13.5073 134.404 13.4457C134.391 13.3841 134.37 13.326 134.343 13.2713C134.315 13.2165 134.281 13.1721 134.24 13.1379C134.199 13.0968 134.151 13.0763 134.097 13.0763H134.045V12.9737H135.482V13.0763H135.43C135.376 13.0763 135.328 13.0968 135.287 13.1379C135.246 13.1721 135.212 13.2165 135.184 13.2713C135.164 13.326 135.147 13.3841 135.133 13.4457C135.119 13.5073 135.112 13.562 135.112 13.6099V19.0792C135.112 19.1339 135.119 19.1955 135.133 19.2639C135.153 19.3254 135.177 19.3836 135.205 19.4383C135.232 19.493 135.263 19.5409 135.297 19.582C135.338 19.623 135.383 19.6435 135.43 19.6435H135.482V19.7462H134.045V19.6435Z" fill="#D2AF6F"/>
<path d="M82.4338 58.3015H82.6533C83.3557 58.3015 83.7069 57.9805 83.7069 57.3385C83.7069 57.105 83.663 56.8569 83.5752 56.5943L79.6243 45.9574H71.9421L68.1229 56.4192C68.0351 56.6527 67.9912 56.8715 67.9912 57.0758C67.9912 57.4552 68.0936 57.7616 68.2985 57.9951C68.5033 58.1993 68.7228 58.3015 68.957 58.3015H69.1765V58.7392H64.3037V58.3015H64.5232C64.9037 58.3015 65.2695 58.0826 65.6207 57.6449C66.0011 57.178 66.3084 56.6381 66.5425 56.0253L76.5953 29.3235L86.4286 55.7626C86.6335 56.3463 86.9115 56.9153 87.2627 57.4698C87.6431 58.0242 88.126 58.3015 88.7113 58.3015H88.9308V58.7392H82.4338V58.3015ZM72.3811 44.4691H79.1414L75.7612 35.3204L72.3811 44.4691Z" fill="#D2AF6F"/>
<path fill-rule="evenodd" clip-rule="evenodd" d="M89.9619 0.591797H62.4971L63.1915 2.43101C63.1966 2.44526 63.2019 2.45939 63.2075 2.4734L73.5514 29.8706L75.0168 25.9671L66.4745 3.34157H85.9844L77.8342 24.9285L79.2907 28.8558L89.2515 2.47332C89.257 2.45936 89.2623 2.44529 89.2674 2.43113L89.9619 0.591797Z" fill="#D2AF6F"/>
<path d="M61.5674 64.896H90.9831L89.7574 61.4756H63.2016L61.5674 64.896Z" fill="#D2AF6F"/>
</svg>
