<svg width="75" height="65" viewBox="0 0 75 65" fill="none" xmlns="http://www.w3.org/2000/svg">
<g clip-path="url(#clip0_1022_5)">
<path fill-rule="evenodd" clip-rule="evenodd" d="M2.85332 62.7066L37.5 3.04811L72.1467 62.7066H2.85332ZM36.1823 0.759548C36.7705 -0.253184 38.2295 -0.253182 38.8177 0.75955L74.7906 62.7016C75.3825 63.7209 74.6492 65 73.4729 65H1.5271C0.350778 65 -0.382525 63.7209 0.209428 62.7016L36.1823 0.759548ZM14.0633 52.1634L16.7979 47.5405L23.2218 44.964C23.537 45.3732 23.8683 45.7552 24.2137 46.1117L14.0633 52.1634ZM22.5436 44.001L17.7557 45.9213L19.3964 43.1476L21.6476 42.3951C21.9226 42.9669 22.2222 43.5014 22.5436 44.001ZM21.1857 41.3408C21.0889 41.0974 20.9963 40.8479 20.9078 40.5924L20.2876 41.641L21.1857 41.3408ZM12.8443 54.2243L10.4836 58.2153H13.7909L26.196 47.7936C25.8134 47.5278 25.4407 47.2402 25.0801 46.9292L12.8443 54.2243ZM15.5716 58.2153H20.4703L28.5637 49.1261C28.1045 48.9197 27.6529 48.6906 27.2115 48.4365L15.5716 58.2153ZM22.0034 58.2153L29.6902 49.5827C30.1095 49.7353 30.5332 49.8712 30.9592 49.9918L25.2815 58.2153H22.0034ZM26.6724 58.2153H29.5552L33.0306 50.4629C32.7356 50.4109 32.4403 50.3529 32.1453 50.2884L26.6724 58.2153ZM30.809 58.2153L34.2053 50.6395C34.459 50.6713 34.7118 50.6992 34.9634 50.7233L33.5014 58.2153H30.809ZM34.6667 58.2153H37.1188V50.8487C36.7873 50.8411 36.4513 50.8284 36.1118 50.8097L34.6667 58.2153ZM38.2624 58.2153V50.8546C38.5959 50.8501 38.9327 50.8395 39.2718 50.8221L40.7145 58.2153H38.2624ZM41.8798 58.2153H44.5722L41.1808 50.6502C40.9267 50.6835 40.6732 50.7123 40.4205 50.737L41.8798 58.2153ZM42.3516 50.465L45.826 58.2153H48.7088L43.2308 50.281C42.938 50.3491 42.6448 50.4103 42.3516 50.465ZM44.4058 49.9683L50.0997 58.2153H53.3778L45.6541 49.5413C45.2414 49.7002 44.8248 49.8421 44.4058 49.9683ZM59.8096 58.2153H54.9109L46.7647 49.0667C47.2118 48.8558 47.6525 48.6225 48.0847 48.3651L59.8096 58.2153ZM61.5903 58.2153L49.088 47.712C49.4604 47.4477 49.8247 47.1631 50.1798 46.8569L61.9481 53.8732L64.5164 58.2153H61.5903ZM52.0506 44.9203C51.7292 45.3187 51.3954 45.6921 51.0505 46.042L60.729 51.8123L58.0835 47.3401L52.0506 44.9203ZM52.76 43.9698L57.1258 45.7209L55.5097 42.9888L53.7253 42.3923C53.4222 42.9524 53.0997 43.4776 52.76 43.9698ZM54.6185 41.4821L54.2443 41.3571C54.2882 41.2622 54.3317 41.1665 54.3746 41.0699L54.6185 41.4821ZM37.8812 27.9229C37.3005 27.9229 36.7315 27.9342 36.1722 27.9627L36.1844 27.9603L34.2484 18.0392L37.1188 13.1867V27.9229H37.8812ZM37.8812 27.9229H38.2624V13.8311L41.0382 18.5238L39.1968 27.9603L39.2049 27.9619C38.7701 27.9354 38.3291 27.9229 37.8812 27.9229ZM31.7452 22.271L33.3722 19.5205L35.036 28.047C34.8125 28.0693 34.5904 28.0951 34.3695 28.1248L31.7452 22.271ZM31.032 23.4768L30.0698 25.1034L32.4197 28.5069C32.6799 28.4382 32.9414 28.3769 33.2043 28.3225L31.032 23.4768ZM28.5991 27.5898L29.428 26.1884L31.2745 28.8628C30.8969 28.9986 30.5212 29.1529 30.1467 29.3278L28.5991 27.5898ZM29.0999 29.874C28.7224 30.0921 28.3455 30.3336 27.9682 30.6007L27.9699 30.5986L27.2013 29.9529L27.9871 28.6243L29.0999 29.874ZM26.6102 30.9522L27.038 31.3117C26.578 31.6895 26.1165 32.1081 25.6522 32.5716L26.6102 30.9522ZM41.9144 20.0051L43.4716 22.6376L40.9966 28.1585C40.7796 28.1232 40.5613 28.0922 40.3416 28.0652L41.9144 20.0051ZM45.106 25.4008L44.1849 23.8434L42.1469 28.3895C42.4002 28.4505 42.652 28.518 42.9024 28.5924L45.106 25.4008ZM45.7478 26.4858L44.0274 28.9777C44.3998 29.1226 44.7698 29.2845 45.1379 29.4643L45.124 29.4519L46.5531 27.847L45.7478 26.4858ZM47.3844 30.8072C46.9765 30.5171 46.5681 30.2526 46.1582 30.0122L47.165 28.8816L47.9987 30.291L47.3844 30.8072ZM48.319 31.5179C48.5921 31.7392 48.8652 31.9725 49.1387 32.2183L48.5899 31.2904L48.319 31.5179ZM36.1885 10.2637C36.7792 9.26508 38.2208 9.26508 38.8115 10.2637L67.1665 58.1998C67.7694 59.219 67.0368 60.5087 65.8551 60.5087H9.14493C7.96315 60.5087 7.23058 59.219 7.83345 58.1998L36.1885 10.2637ZM52.4775 39.688C49.8851 35.9174 47.5885 33.6162 45.3918 32.2284C43.0693 30.7612 40.7029 30.2164 37.8812 30.2164C34.8844 30.2164 32.5429 30.5382 30.2652 31.8476C28.0907 33.0977 25.7439 35.3837 23.025 39.7126C24.2548 43.368 26.425 45.4762 28.8828 46.7371C31.6354 48.1492 34.8896 48.5638 37.8812 48.5638C40.8122 48.5638 43.8716 48.072 46.5145 46.6231C48.8725 45.3304 51.0258 43.2093 52.4775 39.688ZM43.218 37.8611C43.218 36.6988 42.8751 35.621 42.2838 34.7187C40.9036 34.2364 39.4422 34.0387 37.7675 34.0387C37.6992 34.0387 37.6314 34.0389 37.564 34.0393C39.6398 34.0735 41.312 35.7715 41.312 37.8611C41.312 39.9722 39.6053 41.6835 37.5 41.6835C35.3947 41.6835 33.688 39.9722 33.688 37.8611C33.688 37.2038 33.8535 36.5852 34.1449 36.0449C34.3449 36.6556 34.9181 37.0966 35.594 37.0966C36.4361 37.0966 37.1188 36.4121 37.1188 35.5677C37.1188 34.988 36.7971 34.4837 36.3229 34.2244C36.6558 34.1162 37.0088 34.0526 37.3748 34.0408C35.5983 34.0596 34.1222 34.2143 32.7412 34.6807C32.1345 35.5908 31.782 36.6826 31.782 37.8611C31.782 41.0277 34.342 43.5947 37.5 43.5947C40.658 43.5947 43.218 41.0277 43.218 37.8611ZM45.3661 36.3631C46.4762 37.1705 47.6392 38.254 48.8955 39.7081C47.4058 42.2517 45.0299 43.6118 42.3411 44.2545C44.2639 42.7884 45.5052 40.4701 45.5052 37.8611C45.5052 37.3492 45.4575 36.8484 45.3661 36.3631ZM29.4947 37.8611C29.4947 40.4355 30.7034 42.7269 32.5828 44.1958C31.8821 44.026 31.2025 43.8095 30.5595 43.5369C28.7728 42.7793 27.2968 41.6079 26.3829 39.7398C27.548 38.2617 28.6197 37.1867 29.6275 36.3976C29.5403 36.8721 29.4947 37.3613 29.4947 37.8611ZM51.6045 39.3901C48.9908 45.6333 42.8621 47.0348 37.7675 47.0348C32.6728 47.0348 25.9291 45.8881 23.7767 39.3901C26.4576 35.7104 28.8582 33.771 31.3124 32.7678C31.333 32.7426 31.3538 32.7176 31.3747 32.6927C33.4044 31.9173 35.4724 31.7453 37.7675 31.7453C39.8794 31.7453 41.7992 32.0157 43.6627 32.7376C43.6843 32.7637 43.7057 32.7899 43.727 32.8162C46.3356 33.896 48.8369 35.9127 51.6045 39.3901Z" fill="#4D76A1"/>
</g>
<defs>
<clipPath id="clip0_1022_5">
<rect width="75" height="65" fill="white"/>
</clipPath>
</defs>
</svg>
