<svg width="13" height="6" viewBox="0 0 13 6" fill="none" xmlns="http://www.w3.org/2000/svg">
<path fill-rule="evenodd" clip-rule="evenodd" d="M9.64644 0.646447C9.45118 0.84171 9.45118 1.15829 9.64644 1.35355L11.2929 3L9.64644 4.64645C9.45118 4.84171 9.45118 5.15829 9.64644 5.35355C9.8417 5.54882 10.1583 5.54882 10.3535 5.35355L12.3536 3.35355C12.4473 3.25978 12.5 3.1326 12.5 2.99999C12.5 2.86739 12.4473 2.74021 12.3536 2.64644L10.3535 0.646446C10.1583 0.451184 9.8417 0.451185 9.64644 0.646447Z" fill="black"/>
<path fill-rule="evenodd" clip-rule="evenodd" d="M12.5 3C12.5 2.72386 12.2761 2.5 12 2.5H1C0.723858 2.5 0.5 2.72386 0.5 3C0.5 3.27614 0.723858 3.5 1 3.5H12C12.2761 3.5 12.5 3.27614 12.5 3Z" fill="black"/>
</svg>
