<svg width="13" height="6" viewBox="0 0 13 6" fill="none" xmlns="http://www.w3.org/2000/svg">
<path fill-rule="evenodd" clip-rule="evenodd" d="M3.35356 0.646447C3.54882 0.84171 3.54882 1.15829 3.35356 1.35355L1.70711 3L3.35356 4.64645C3.54882 4.84171 3.54882 5.15829 3.35356 5.35355C3.1583 5.54882 2.84171 5.54882 2.64645 5.35355L0.646447 3.35355C0.552678 3.25978 0.5 3.1326 0.5 2.99999C0.5 2.86739 0.552679 2.74021 0.646447 2.64644L2.64645 0.646446C2.84171 0.451184 3.1583 0.451185 3.35356 0.646447Z" fill="black"/>
<path fill-rule="evenodd" clip-rule="evenodd" d="M0.5 3C0.5 2.72386 0.723858 2.5 1 2.5H12C12.2761 2.5 12.5 2.72386 12.5 3C12.5 3.27614 12.2761 3.5 12 3.5H1C0.723858 3.5 0.5 3.27614 0.5 3Z" fill="black"/>
</svg>
