<svg width="15" height="15" viewBox="0 0 15 15" fill="none" xmlns="http://www.w3.org/2000/svg">
<g clip-path="url(#clip0_937_2)">
<path fill-rule="evenodd" clip-rule="evenodd" d="M0.272747 2.46568C0.0855412 1.22623 1.0817 0.25 2.23598 0.25H4.71683C5.0292 0.25 5.30886 0.44361 5.41882 0.735989L6.38143 3.29553C6.42961 3.42362 6.44181 3.56245 6.41673 3.69699L5.9486 6.20815C6.50572 7.47451 7.40821 8.34769 8.91984 9.1432L11.389 8.66476C11.5262 8.63817 11.6681 8.65045 11.7987 8.70022L14.3661 9.67856C14.6569 9.78937 14.849 10.0682 14.849 10.3794V12.75C14.849 13.9718 13.7668 14.9833 12.4859 14.7047L12.4859 14.7047C10.4535 14.2624 6.65201 13.1327 3.97847 10.4592L4.5088 9.92885L3.97846 10.4592C1.41026 7.89094 0.558438 4.35707 0.272748 2.46569L0.272747 2.46568ZM2.23598 1.75C1.89876 1.75 1.72038 2.00633 1.75592 2.24166C2.02636 4.03202 2.81425 7.17362 5.03913 9.39852C7.39907 11.7585 10.8471 12.813 12.8048 13.2389C13.0647 13.2955 13.349 13.105 13.349 12.75V10.8962L11.4644 10.178L8.95055 10.6652C8.78794 10.6967 8.61947 10.6735 8.47143 10.5992C6.51911 9.61923 5.22197 8.44003 4.47384 6.56971C4.42105 6.43773 4.40685 6.29346 4.4329 6.15372L4.9038 3.62774L4.1976 1.75H2.23598Z" fill="#D2AF6F"/>
</g>
<defs>
<clipPath id="clip0_937_2">
<rect width="15" height="15" fill="white"/>
</clipPath>
</defs>
</svg>
