<svg width="17" height="17" viewBox="0 0 17 17" fill="none" xmlns="http://www.w3.org/2000/svg">
<g clip-path="url(#clip0_1037_2)">
<path fill-rule="evenodd" clip-rule="evenodd" d="M0.521676 2.62488C0.34357 1.44572 1.28869 0.5 2.41507 0.5H5.2561C5.46435 0.5 5.65079 0.629073 5.72409 0.823992L6.82646 3.75514C6.85858 3.84054 6.86672 3.93309 6.85 4.02278L6.29387 7.00593C6.98231 8.63744 8.12474 9.72743 10.0147 10.7017L12.9652 10.1299C13.0566 10.1122 13.1512 10.1204 13.2383 10.1536L16.1785 11.2739C16.3724 11.3477 16.5005 11.5336 16.5005 11.7411V14.456C16.5005 15.6478 15.4519 16.6097 14.2294 16.3437C11.9199 15.8411 7.65099 14.5654 4.66433 11.5788L5.01788 11.2252L4.66432 11.5788C1.80538 8.71979 0.845192 4.7667 0.521676 2.62488L0.521676 2.62488ZM2.41507 1.5C1.83339 1.5 1.43347 1.96578 1.51046 2.47552C1.8238 4.55 2.74137 8.24157 5.37143 10.8716C8.14904 13.6492 12.1823 14.8748 14.442 15.3665L14.442 15.3665C14.9839 15.4845 15.5005 15.0698 15.5005 14.456V12.0857L13.0155 11.1388L10.0362 11.7161C9.92783 11.7371 9.81552 11.7216 9.71683 11.6721C7.53488 10.5769 6.1263 9.28317 5.31106 7.24506C5.27586 7.15708 5.2664 7.0609 5.28377 6.96774L5.84138 3.97662L4.90995 1.5H2.41507Z" fill="black"/>
</g>
<defs>
<clipPath id="clip0_1037_2">
<rect width="17" height="17" fill="white"/>
</clipPath>
</defs>
</svg>
