<svg width="28" height="27" viewBox="0 0 28 27" fill="none" xmlns="http://www.w3.org/2000/svg">
<path fill-rule="evenodd" clip-rule="evenodd" d="M14 -4.37113e-08C14.5523 -1.95702e-08 15 0.447715 15 1L15 26C15 26.5523 14.5523 27 14 27C13.4477 27 13 26.5523 13 26L13 1C13 0.447715 13.4477 -6.78524e-08 14 -4.37113e-08Z" fill="black"/>
<path fill-rule="evenodd" clip-rule="evenodd" d="M27.5 13.5C27.5 14.0523 27.0523 14.5 26.5 14.5L1.5 14.5C0.947716 14.5 0.5 14.0523 0.5 13.5C0.5 12.9477 0.947716 12.5 1.5 12.5L26.5 12.5C27.0523 12.5 27.5 12.9477 27.5 13.5Z" fill="black"/>
</svg>
