<svg width="28" height="28" viewBox="0 0 28 28" fill="none" xmlns="http://www.w3.org/2000/svg">
<g clip-path="url(#clip0_1027_6)">
<path fill-rule="evenodd" clip-rule="evenodd" d="M14 1C6.8203 1 1 6.8203 1 14C1 21.1797 6.8203 27 14 27C21.1797 27 27 21.1797 27 14C27 6.8203 21.1797 1 14 1ZM0 14C0 6.26801 6.26801 0 14 0C21.732 0 28 6.26801 28 14C28 21.732 21.732 28 14 28C6.26801 28 0 21.732 0 14Z" fill="#93A5BC"/>
<path d="M13.2669 15.4575C13.2669 15.1402 13.3602 14.8602 13.5469 14.6175C13.7336 14.3655 14.0136 14.0715 14.3869 13.7355C14.7976 13.3528 15.0822 13.0495 15.2409 12.8255C15.3996 12.6015 15.4789 12.3308 15.4789 12.0135C15.4789 11.6028 15.3436 11.2668 15.0729 11.0055C14.8116 10.7348 14.4896 10.5995 14.1069 10.5995C13.7429 10.5995 13.4256 10.7162 13.1549 10.9495C12.8842 11.1735 12.6789 11.5048 12.5389 11.9435L11.6289 11.5655C11.8156 10.9402 12.1236 10.4595 12.5529 10.1235C12.9916 9.77814 13.5189 9.60547 14.1349 9.60547C14.5829 9.60547 14.9936 9.70814 15.3669 9.91347C15.7496 10.1095 16.0482 10.3848 16.2629 10.7395C16.4869 11.0942 16.5989 11.4955 16.5989 11.9435C16.5989 12.3728 16.4869 12.7602 16.2629 13.1055C16.0482 13.4415 15.7169 13.8102 15.2689 14.2115C14.9049 14.5475 14.6482 14.8088 14.4989 14.9955C14.3496 15.1822 14.2749 15.3922 14.2749 15.6255C14.2749 15.7095 14.2982 15.8588 14.3449 16.0735H13.4069C13.3136 15.8868 13.2669 15.6815 13.2669 15.4575ZM13.9389 19.1535C13.7056 19.1535 13.5002 19.0695 13.3229 18.9015C13.1456 18.7335 13.0569 18.5235 13.0569 18.2715C13.0569 18.0195 13.1456 17.8095 13.3229 17.6415C13.5002 17.4735 13.7056 17.3895 13.9389 17.3895C14.1909 17.3895 14.4009 17.4735 14.5689 17.6415C14.7462 17.8095 14.8349 18.0195 14.8349 18.2715C14.8349 18.5235 14.7462 18.7335 14.5689 18.9015C14.4009 19.0695 14.1909 19.1535 13.9389 19.1535Z" fill="#93A5BC"/>
</g>
<defs>
<clipPath id="clip0_1027_6">
<rect width="28" height="28" fill="white"/>
</clipPath>
</defs>
</svg>
