<svg width="22" height="22" viewBox="0 0 22 22" fill="none" xmlns="http://www.w3.org/2000/svg">
<path d="M21.2483 17.5862L17.5319 13.8699L14.6734 12.6889C15.6252 11.3354 16.1351 9.72059 16.1333 8.06592C16.1333 3.61794 12.5146 -0.000732422 8.06665 -0.000732422C3.61867 -0.000732422 0 3.61794 0 8.06592C0 12.5139 3.61867 16.1326 8.06665 16.1326C9.73573 16.1345 11.3638 15.6157 12.7242 14.6486L13.9021 17.4994L17.6183 21.216C17.8566 21.4543 18.1396 21.6434 18.451 21.7724C18.7624 21.9014 19.0961 21.9678 19.4332 21.9678C19.7703 21.9678 20.104 21.9014 20.4155 21.7725C20.7269 21.6435 21.0098 21.4544 21.2482 21.2161C21.4865 20.9778 21.6756 20.6948 21.8046 20.3834C21.9336 20.072 22 19.7382 22 19.4012C22 19.0641 21.9336 18.7303 21.8047 18.4189C21.6757 18.1075 21.4866 17.8246 21.2483 17.5862ZM1.46666 8.06592C1.46666 4.42676 4.42749 1.46593 8.06665 1.46593C11.7058 1.46593 14.6666 4.42676 14.6666 8.06592C14.6666 11.7051 11.7058 14.6659 8.06665 14.6659C4.42749 14.6659 1.46666 11.7051 1.46666 8.06592ZM20.2111 20.1789C20.0047 20.3849 19.7249 20.5006 19.4333 20.5006C19.1416 20.5006 18.8619 20.3849 18.6555 20.1789L15.1459 16.6694L14.0508 14.0186L16.7016 15.1137L20.2112 18.6233C20.4172 18.8297 20.5328 19.1095 20.5328 19.4011C20.5328 19.6927 20.4171 19.9725 20.2111 20.1789Z" fill="white"/>
</svg>
