<svg width="26" height="24" viewBox="0 0 26 24" fill="none" xmlns="http://www.w3.org/2000/svg">
<path fill-rule="evenodd" clip-rule="evenodd" d="M11.6776 22.6727C12.0872 22.9093 12.5445 23.0271 13 23.0271C13.4671 23.0271 13.9256 22.9033 14.3289 22.669C14.4813 22.5804 17.1577 21.0143 19.8944 18.6455C21.5237 17.2353 22.8797 15.7928 23.8891 14.3485C25.1914 12.4852 25.9871 10.5107 25.9999 8.50465C26.0144 6.19867 25.1282 3.94556 23.5173 2.32456C22.0471 0.845004 20.0955 0 18.0227 0C16.1263 0 14.3728 0.712816 13.0001 1.89818C11.6273 0.7128 9.87373 0 7.9774 0C5.78105 0 3.74692 0.940674 2.25849 2.57591C0.800567 4.17769 0.0140372 6.27952 0.000151625 8.47116C-0.0125579 10.4893 0.774489 12.4748 2.07687 14.3448C3.08522 15.7927 4.44503 17.2373 6.08119 18.6485C8.82621 21.016 11.5196 22.5815 11.6776 22.6727Z" fill="white"/>
</svg>
