<svg width="331" height="12" viewBox="0 0 331 12" fill="none" xmlns="http://www.w3.org/2000/svg">
<path fill-rule="evenodd" clip-rule="evenodd" d="M5.7497 0L0 5.74969L5.7497 11.4994L11.2497 5.99939L16.7497 11.4994L22.2497 5.99939L27.7497 11.4994L33.2497 5.99939L38.7497 11.4994L44.2497 5.99939L49.7497 11.4994L55.2497 5.99939L60.7497 11.4994L66.2497 5.99939L71.7497 11.4994L77.2497 5.99939L82.7497 11.4994L88.2497 5.99939L93.7497 11.4994L99.2497 5.99939L104.75 11.4994L110.25 5.99939L115.75 11.4994L121.25 5.99939L126.75 11.4994L132.25 5.99939L137.75 11.4994L143.25 5.99939L148.75 11.4994L154.25 5.99939L159.75 11.4994L165.25 5.99939L170.75 11.4994L176.25 5.99939L181.75 11.4994L187.25 5.99939L192.75 11.4994L198.25 5.99939L203.75 11.4994L209.25 5.99939L214.75 11.4994L220.25 5.99939L225.75 11.4994L231.25 5.99939L236.75 11.4994L242.25 5.99939L247.75 11.4994L253.25 5.99939L258.75 11.4994L264.25 5.99939L269.75 11.4994L275.25 5.99939L280.75 11.4994L286.25 5.99939L291.75 11.4994L297.25 5.99939L302.75 11.4994L308.25 5.99939L313.75 11.4994L319.25 5.99939L324.75 11.4994L330.499 5.74969L324.75 0L319.25 5.5L313.75 0L308.25 5.5L302.75 0L297.25 5.5L291.75 0L286.25 5.5L280.75 0L275.25 5.5L269.75 0L264.25 5.5L258.75 0L253.25 5.5L247.75 0L242.25 5.5L236.75 0L231.25 5.5L225.75 0L220.25 5.5L214.75 0L209.25 5.5L203.75 0L198.25 5.5L192.75 0L187.25 5.5L181.75 0L176.25 5.5L170.75 0L165.25 5.5L159.75 0L154.25 5.5L148.75 0L143.25 5.5L137.75 0L132.25 5.5L126.75 0L121.25 5.5L115.75 0L110.25 5.5L104.75 0L99.2497 5.5L93.7497 0L88.2497 5.5L82.7497 0L77.2497 5.5L71.7497 0L66.2497 5.5L60.7497 0L55.2497 5.5L49.7497 0L44.2497 5.5L38.7497 0L33.2497 5.5L27.7497 0L22.2497 5.5L16.7497 0L11.2497 5.5L5.7497 0Z" fill="white"/>
</svg>
